font.ufo
<glyph name="exclam" format="1">
  <advance width="370"/>
  <unicode hex="0021"/>
  <outline>
    <contour>
      <point x="185" y="-15" type="curve" smooth="yes"/>
      <point x="244" y="-15"/>
      <point x="290" y="30"/>
      <point x="290" y="88" type="curve" smooth="yes"/>
      <point x="290" y="146"/>
      <point x="244" y="192"/>
      <point x="185" y="192" type="curve" smooth="yes"/>
      <point x="126" y="192"/>
      <point x="80" y="146"/>
      <point x="80" y="88" type="curve" smooth="yes"/>
      <point x="80" y="30"/>
      <point x="126" y="-15"/>
    </contour>
    <contour>
      <point x="185" y="661" type="curve" smooth="yes"/>
      <point x="117" y="661"/>
      <point x="74" y="623"/>
      <point x="74" y="554" type="curve" smooth="yes"/>
      <point x="74" y="518"/>
      <point x="82" y="461"/>
      <point x="126" y="342" type="curve" smooth="yes"/>
      <point x="155" y="263" type="line"/>
      <point x="215" y="263" type="line"/>
      <point x="244" y="342" type="line" smooth="yes"/>
      <point x="287" y="460"/>
      <point x="296" y="518"/>
      <point x="296" y="554" type="curve" smooth="yes"/>
      <point x="296" y="623"/>
      <point x="252" y="661"/>
    </contour>
  </outline>
</glyph>
<glyph name="quotesingle" format="1">
  <advance width="257"/>
  <unicode hex="0027"/>
  <outline>
    <contour>
      <point x="128" y="726" type="curve" smooth="yes"/>
      <point x="73" y="726"/>
      <point x="40" y="695"/>
      <point x="40" y="635" type="curve" smooth="yes"/>
      <point x="40" y="585"/>
      <point x="60" y="524"/>
      <point x="66" y="500" type="curve" smooth="yes"/>
      <point x="98" y="381" type="line"/>
      <point x="159" y="381" type="line"/>
      <point x="191" y="500" type="line" smooth="yes"/>
      <point x="198" y="526"/>
      <point x="217" y="585"/>
      <point x="217" y="635" type="curve" smooth="yes"/>
      <point x="217" y="695"/>
      <point x="183" y="726"/>
    </contour>
  </outline>
</glyph>
<glyph name="asterisk" format="1">
  <advance width="427"/>
  <unicode hex="002A"/>
  <outline>
    <contour>
      <point x="213" y="731" type="curve" smooth="yes"/>
      <point x="177" y="731"/>
      <point x="160" y="702"/>
      <point x="160" y="672" type="curve" smooth="yes"/>
      <point x="160" y="654"/>
      <point x="166" y="627"/>
      <point x="181" y="586" type="curve" smooth="yes"/>
      <point x="190" y="562" type="line"/>
      <point x="170" y="578" type="line" smooth="yes"/>
      <point x="128" y="612"/>
      <point x="101" y="629"/>
      <point x="72" y="629" type="curve" smooth="yes"/>
      <point x="48" y="629"/>
      <point x="19" y="612"/>
      <point x="19" y="574" type="curve" smooth="yes"/>
      <point x="19" y="530"/>
      <point x="54" y="513"/>
      <point x="150" y="517" type="curve" smooth="yes"/>
      <point x="175" y="518" type="line"/>
      <point x="153" y="504" type="line" smooth="yes"/>
      <point x="97" y="468"/>
      <point x="71" y="442"/>
      <point x="71" y="409" type="curve" smooth="yes"/>
      <point x="71" y="387"/>
      <point x="92" y="357"/>
      <point x="124" y="357" type="curve" smooth="yes"/>
      <point x="159" y="357"/>
      <point x="181" y="382"/>
      <point x="205" y="466" type="curve" smooth="yes"/>
      <point x="212" y="491" type="line"/>
      <point x="220" y="466" type="line" smooth="yes"/>
      <point x="240" y="395"/>
      <point x="258" y="356"/>
      <point x="300" y="356" type="curve" smooth="yes"/>
      <point x="330" y="356"/>
      <point x="353" y="384"/>
      <point x="353" y="408" type="curve" smooth="yes"/>
      <point x="353" y="437"/>
      <point x="338" y="458"/>
      <point x="272" y="504" type="curve" smooth="yes"/>
      <point x="250" y="518" type="line"/>
      <point x="276" y="517" type="line" smooth="yes"/>
      <point x="365" y="514"/>
      <point x="407" y="530"/>
      <point x="407" y="573" type="curve" smooth="yes"/>
      <point x="407" y="611"/>
      <point x="379" y="628"/>
      <point x="354" y="628" type="curve" smooth="yes"/>
      <point x="334" y="628"/>
      <point x="307" y="618"/>
      <point x="256" y="578" type="curve" smooth="yes"/>
      <point x="236" y="562" type="line"/>
      <point x="245" y="586" type="line" smooth="yes"/>
      <point x="259" y="624"/>
      <point x="267" y="649"/>
      <point x="267" y="672" type="curve" smooth="yes"/>
      <point x="267" y="702"/>
      <point x="250" y="731"/>
    </contour>
  </outline>
</glyph>
<glyph name="plus" format="1">
  <advance width="550"/>
  <unicode hex="002B"/>
  <outline>
    <contour>
      <point x="223" y="70" type="line"/>
      <point x="327" y="70" type="line"/>
      <point x="327" y="565" type="line"/>
      <point x="223" y="565" type="line"/>
    </contour>
    <contour>
      <point x="520" y="270" type="line"/>
      <point x="520" y="370" type="line"/>
      <point x="30" y="370" type="line"/>
      <point x="30" y="270" type="line"/>
    </contour>
  </outline>
</glyph>
<glyph name="comma" format="1">
  <advance width="300"/>
  <unicode hex="002C"/>
  <outline>
    <contour>
      <point x="248" y="68" type="curve" smooth="yes"/>
      <point x="248" y="100"/>
      <point x="245" y="120"/>
      <point x="232" y="152" type="curve"/>
      <point x="208" y="173"/>
      <point x="184" y="180"/>
      <point x="152" y="180" type="curve" smooth="yes"/>
      <point x="96" y="180"/>
      <point x="52" y="138"/>
      <point x="52" y="83" type="curve" smooth="yes"/>
      <point x="52" y="52"/>
      <point x="68" y="18"/>
      <point x="116" y="-5" type="curve" smooth="yes"/>
      <point x="192" y="-41" type="line"/>
      <point x="157" y="-8" type="line"/>
      <point x="133" y="-55"/>
      <point x="95" y="-107"/>
      <point x="23" y="-146" type="curve"/>
      <point x="37" y="-192" type="line"/>
      <point x="132" y="-165"/>
      <point x="248" y="-76"/>
    </contour>
  </outline>
</glyph>
<glyph name="hyphen" format="1">
	<unicode hex="002D"/>
	<advance width="350"/>
	<outline>
		<contour>
			<point x="40" y="205" type="line"/>
			<point x="310" y="205" type="line"/>
			<point x="310" y="305" type="line"/>
			<point x="40" y="305" type="line"/>
		</contour>
	</outline>
</glyph>
<glyph name="period" format="1">
  <advance width="300"/>
  <unicode hex="002E"/>
  <outline>
    <contour>
      <point x="150" y="-15" type="curve" smooth="yes"/>
      <point x="205" y="-15"/>
      <point x="248" y="28"/>
      <point x="248" y="81" type="curve" smooth="yes"/>
      <point x="248" y="135"/>
      <point x="205" y="180"/>
      <point x="150" y="180" type="curve" smooth="yes"/>
      <point x="95" y="180"/>
      <point x="52" y="135"/>
      <point x="52" y="81" type="curve" smooth="yes"/>
      <point x="52" y="28"/>
      <point x="95" y="-15"/>
    </contour>
  </outline>
</glyph>
<glyph name="slash" format="1">
  <advance width="410"/>
  <unicode hex="002F"/>
  <outline>
    <contour>
      <point x="12" y="-160" type="line"/>
      <point x="132" y="-160" type="line"/>
      <point x="399" y="710" type="line"/>
      <point x="279" y="710" type="line"/>
    </contour>
  </outline>
</glyph>
<glyph name="zero" format="1">
  <advance width="560"/>
  <unicode hex="0030"/>
  <outline>
    <contour>
      <point x="209" y="312" type="curve" smooth="yes"/>
      <point x="209" y="534"/>
      <point x="237" y="586"/>
      <point x="279" y="586" type="curve" smooth="yes"/>
      <point x="321" y="586"/>
      <point x="352" y="533"/>
      <point x="352" y="312" type="curve" smooth="yes"/>
      <point x="352" y="92"/>
      <point x="321" y="40"/>
      <point x="279" y="40" type="curve" smooth="yes"/>
      <point x="237" y="40"/>
      <point x="209" y="91"/>
    </contour>
    <contour>
      <point x="279" y="640" type="curve" smooth="yes"/>
      <point x="147" y="640"/>
      <point x="34" y="537"/>
      <point x="34" y="312" type="curve" smooth="yes"/>
      <point x="34" y="88"/>
      <point x="147" y="-15"/>
      <point x="279" y="-15" type="curve" smooth="yes"/>
      <point x="411" y="-15"/>
      <point x="527" y="88"/>
      <point x="527" y="312" type="curve" smooth="yes"/>
      <point x="527" y="537"/>
      <point x="411" y="640"/>
    </contour>
  </outline>
</glyph>
<glyph name="one" format="1">
  <advance width="560"/>
  <unicode hex="0031"/>
  <outline>
    <contour>
      <point x="104" y="574" type="line"/>
      <point x="104" y="509" type="line"/>
      <point x="187" y="517" type="line"/>
      <point x="187" y="207" type="line" smooth="yes"/>
      <point x="187" y="140"/>
      <point x="186" y="69"/>
      <point x="184" y="0" type="curve"/>
      <point x="383" y="0" type="line"/>
      <point x="381" y="69"/>
      <point x="380" y="140"/>
      <point x="380" y="207" type="curve" smooth="yes"/>
      <point x="380" y="478" type="line"/>
      <point x="384" y="620" type="line"/>
      <point x="370" y="630" type="line"/>
    </contour>
    <contour>
      <point x="376" y="82" type="line"/>
      <point x="195" y="82" type="line"/>
      <point x="73" y="51" type="line"/>
      <point x="73" y="0" type="line"/>
      <point x="486" y="0" type="line"/>
      <point x="486" y="51" type="line"/>
    </contour>
  </outline>
</glyph>
<glyph name="less" format="1">
  <advance width="550"/>
  <unicode hex="003C"/>
  <outline>
    <contour>
      <point x="30" y="278" type="line"/>
      <point x="461" y="65" type="line"/>
      <point x="510" y="165" type="line"/>
      <point x="85" y="361" type="line"/>
      <point x="85" y="281" type="line"/>
      <point x="510" y="477" type="line"/>
      <point x="461" y="577" type="line"/>
      <point x="30" y="364" type="line"/>
    </contour>
  </outline>
</glyph>
<glyph name="question" format="1">
  <advance width="462"/>
  <unicode hex="003F"/>
  <outline>
    <contour>
      <point x="181" y="-15" type="curve" smooth="yes"/>
      <point x="241" y="-15"/>
      <point x="286" y="30"/>
      <point x="286" y="88" type="curve" smooth="yes"/>
      <point x="286" y="146"/>
      <point x="241" y="192"/>
      <point x="181" y="192" type="curve" smooth="yes"/>
      <point x="123" y="192"/>
      <point x="75" y="146"/>
      <point x="75" y="88" type="curve" smooth="yes"/>
      <point x="75" y="30"/>
      <point x="123" y="-15"/>
    </contour>
    <contour>
      <point x="412" y="414" type="curve" smooth="yes"/>
      <point x="412" y="557"/>
      <point x="248" y="646"/>
      <point x="164" y="672" type="curve"/>
      <point x="101" y="656"/>
      <point x="73" y="631"/>
      <point x="73" y="590" type="curve" smooth="yes"/>
      <point x="73" y="546"/>
      <point x="94" y="521"/>
      <point x="172" y="507" type="curve" smooth="yes"/>
      <point x="347" y="475" type="line"/>
      <point x="294" y="544" type="line"/>
      <point x="317" y="509"/>
      <point x="323" y="494"/>
      <point x="323" y="478" type="curve" smooth="yes"/>
      <point x="323" y="457"/>
      <point x="312" y="450"/>
      <point x="278" y="443" type="curve" smooth="yes"/>
      <point x="184" y="425" type="line" smooth="yes"/>
      <point x="129" y="414"/>
      <point x="108" y="403"/>
      <point x="108" y="368" type="curve" smooth="yes"/>
      <point x="108" y="344"/>
      <point x="116" y="313"/>
      <point x="130" y="269" type="curve" smooth="yes"/>
      <point x="141" y="235" type="line"/>
      <point x="206" y="235" type="line"/>
      <point x="209" y="256" type="line" smooth="yes"/>
      <point x="213" y="283"/>
      <point x="223" y="286"/>
      <point x="247" y="288" type="curve" smooth="yes"/>
      <point x="294" y="292" type="line" smooth="yes"/>
      <point x="377" y="299"/>
      <point x="412" y="349"/>
    </contour>
  </outline>
</glyph>
<glyph name="at" format="1">
	<unicode hex="0040"/>
	<advance width="913"/>
	<outline>
		<contour>
			<point x="445" y="136" type="curve" smooth="yes"/>
			<point x="413" y="136"/>
			<point x="386" y="164"/>
			<point x="386" y="225" type="curve" smooth="yes"/>
			<point x="386" y="275"/>
			<point x="398" y="320"/>
			<point x="422" y="358" type="curve" smooth="yes"/>
			<point x="445" y="394"/>
			<point x="472" y="408"/>
			<point x="492" y="408" type="curve" smooth="yes"/>
			<point x="515" y="408"/>
			<point x="533" y="396"/>
			<point x="560" y="343" type="curve"/>
			<point x="610" y="404" type="line"/>
			<point x="592" y="449"/>
			<point x="546" y="487"/>
			<point x="482" y="487" type="curve" smooth="yes"/>
			<point x="433" y="487"/>
			<point x="368" y="460"/>
			<point x="323" y="409" type="curve" smooth="yes"/>
			<point x="274" y="354"/>
			<point x="237" y="268"/>
			<point x="237" y="188" type="curve" smooth="yes"/>
			<point x="237" y="88"/>
			<point x="291" y="37"/>
			<point x="359" y="37" type="curve" smooth="yes"/>
			<point x="425" y="37"/>
			<point x="484" y="70"/>
			<point x="535" y="191" type="curve"/>
			<point x="521" y="216" type="line"/>
			<point x="493" y="155"/>
			<point x="470" y="136"/>
		</contour>
		<contour>
			<point x="513" y="581" type="curve" smooth="yes"/>
			<point x="673" y="581"/>
			<point x="775" y="505"/>
			<point x="775" y="320" type="curve" smooth="yes"/>
			<point x="775" y="172"/>
			<point x="732" y="102"/>
			<point x="670" y="102" type="curve" smooth="yes"/>
			<point x="634" y="102"/>
			<point x="624" y="122"/>
			<point x="638" y="206" type="curve"/>
			<point x="679" y="458" type="line"/>
			<point x="650" y="476" type="line"/>
			<point x="528" y="408" type="line"/>
			<point x="486" y="150" type="line"/>
			<point x="499" y="146" type="line"/>
			<point x="510" y="83"/>
			<point x="564" y="37"/>
			<point x="648" y="37" type="curve" smooth="yes"/>
			<point x="790" y="37"/>
			<point x="873" y="158"/>
			<point x="873" y="320" type="curve" smooth="yes"/>
			<point x="873" y="525"/>
			<point x="729" y="662"/>
			<point x="524" y="662" type="curve" smooth="yes"/>
			<point x="233" y="662"/>
			<point x="40" y="442"/>
			<point x="40" y="200" type="curve" smooth="yes"/>
			<point x="40" y="-18"/>
			<point x="187" y="-157"/>
			<point x="416" y="-157" type="curve" smooth="yes"/>
			<point x="514" y="-157"/>
			<point x="597" y="-127"/>
			<point x="662" y="-80" type="curve"/>
			<point x="629" y="-25" type="line"/>
			<point x="572" y="-59"/>
			<point x="494" y="-74"/>
			<point x="431" y="-74" type="curve" smooth="yes"/>
			<point x="257" y="-74"/>
			<point x="152" y="30"/>
			<point x="152" y="199" type="curve" smooth="yes"/>
			<point x="152" y="412"/>
			<point x="300" y="581"/>
		</contour>
	</outline>
</glyph>
<glyph name="C" format="1">
  <advance width="618"/>
  <unicode hex="0043"/>
  <outline>
    <contour>
      <point x="413" y="40" type="curve" smooth="yes"/>
      <point x="320" y="40"/>
      <point x="233" y="118"/>
      <point x="233" y="325" type="curve" smooth="yes"/>
      <point x="233" y="533"/>
      <point x="321" y="613"/>
      <point x="417" y="613" type="curve" smooth="yes"/>
      <point x="461" y="613"/>
      <point x="495" y="595"/>
      <point x="539" y="556" type="curve"/>
      <point x="470" y="625" type="line"/>
      <point x="508" y="463" type="line"/>
      <point x="590" y="463" type="line"/>
      <point x="586" y="622" type="line"/>
      <point x="530" y="652"/>
      <point x="473" y="672"/>
      <point x="389" y="672" type="curve" smooth="yes"/>
      <point x="204" y="672"/>
      <point x="28" y="577"/>
      <point x="28" y="326" type="curve" smooth="yes"/>
      <point x="28" y="81"/>
      <point x="190" y="-20"/>
      <point x="379" y="-20" type="curve" smooth="yes"/>
      <point x="471" y="-20"/>
      <point x="542" y="4"/>
      <point x="592" y="32" type="curve"/>
      <point x="596" y="189" type="line"/>
      <point x="514" y="189" type="line"/>
      <point x="477" y="29" type="line"/>
      <point x="546" y="94" type="line"/>
      <point x="503" y="62"/>
      <point x="460" y="40"/>
    </contour>
  </outline>
</glyph>
<glyph name="G" format="1">
  <advance width="672"/>
  <unicode hex="0047"/>
  <outline>
    <contour>
      <point x="454" y="268" type="line"/>
      <point x="537" y="268" type="line"/>
      <point x="657" y="286" type="line"/>
      <point x="657" y="345" type="line"/>
      <point x="335" y="345" type="line"/>
      <point x="335" y="286" type="line"/>
    </contour>
    <contour>
      <point x="607" y="79" type="line"/>
      <point x="607" y="164"/>
      <point x="608" y="263"/>
      <point x="610" y="345" type="curve"/>
      <point x="418" y="345" type="line"/>
      <point x="420" y="261"/>
      <point x="421" y="167"/>
      <point x="421" y="84" type="curve" smooth="yes"/>
      <point x="421" y="1" type="line"/>
      <point x="509" y="72" type="line"/>
      <point x="471" y="50"/>
      <point x="448" y="39"/>
      <point x="412" y="39" type="curve" smooth="yes"/>
      <point x="319" y="39"/>
      <point x="233" y="126"/>
      <point x="233" y="328" type="curve" smooth="yes"/>
      <point x="233" y="530"/>
      <point x="321" y="613"/>
      <point x="417" y="613" type="curve" smooth="yes"/>
      <point x="453" y="613"/>
      <point x="490" y="601"/>
      <point x="537" y="567" type="curve"/>
      <point x="465" y="630" type="line"/>
      <point x="504" y="467" type="line"/>
      <point x="588" y="467" type="line"/>
      <point x="584" y="627" type="line"/>
      <point x="525" y="657"/>
      <point x="452" y="672"/>
      <point x="393" y="672" type="curve" smooth="yes"/>
      <point x="157" y="672"/>
      <point x="28" y="542"/>
      <point x="28" y="328" type="curve" smooth="yes"/>
      <point x="28" y="103"/>
      <point x="170" y="-20"/>
      <point x="378" y="-20" type="curve" smooth="yes"/>
      <point x="469" y="-20"/>
      <point x="537" y="-3"/>
      <point x="607" y="38" type="curve"/>
    </contour>
  </outline>
</glyph>
<glyph name="H" format="1">
  <advance width="752"/>
  <unicode hex="0048"/>
  <outline>
    <contour>
      <point x="544" y="578" type="line"/>
      <point x="575" y="578" type="line"/>
      <point x="724" y="593" type="line"/>
      <point x="724" y="652" type="line"/>
      <point x="395" y="652" type="line"/>
      <point x="395" y="593" type="line"/>
    </contour>
    <contour>
      <point x="544" y="74" type="line"/>
      <point x="395" y="59" type="line"/>
      <point x="395" y="0" type="line"/>
      <point x="724" y="0" type="line"/>
      <point x="724" y="59" type="line"/>
      <point x="575" y="74" type="line"/>
    </contour>
    <contour>
      <point x="458" y="311" type="line"/>
      <point x="458" y="205"/>
      <point x="458" y="101"/>
      <point x="455" y="0" type="curve"/>
      <point x="659" y="0" type="line"/>
      <point x="656" y="103"/>
      <point x="656" y="207"/>
      <point x="656" y="310" type="curve" smooth="yes"/>
      <point x="656" y="342" type="line" smooth="yes"/>
      <point x="656" y="447"/>
      <point x="656" y="551"/>
      <point x="659" y="652" type="curve"/>
      <point x="455" y="652" type="line"/>
      <point x="458" y="549"/>
      <point x="458" y="445"/>
      <point x="458" y="342" type="curve" smooth="yes"/>
    </contour>
    <contour>
      <point x="96" y="310" type="line"/>
      <point x="96" y="205"/>
      <point x="96" y="101"/>
      <point x="93" y="0" type="curve"/>
      <point x="297" y="0" type="line"/>
      <point x="294" y="103"/>
      <point x="294" y="207"/>
      <point x="294" y="311" type="curve" smooth="yes"/>
      <point x="294" y="342" type="line" smooth="yes"/>
      <point x="294" y="447"/>
      <point x="294" y="551"/>
      <point x="297" y="652" type="curve"/>
      <point x="93" y="652" type="line"/>
      <point x="96" y="549"/>
      <point x="96" y="445"/>
      <point x="96" y="342" type="curve" smooth="yes"/>
    </contour>
    <contour>
      <point x="172" y="578" type="line"/>
      <point x="205" y="578" type="line"/>
      <point x="357" y="593" type="line"/>
      <point x="357" y="652" type="line"/>
      <point x="28" y="652" type="line"/>
      <point x="28" y="593" type="line"/>
    </contour>
    <contour>
      <point x="172" y="74" type="line"/>
      <point x="28" y="59" type="line"/>
      <point x="28" y="0" type="line"/>
      <point x="357" y="0" type="line"/>
      <point x="357" y="59" type="line"/>
      <point x="205" y="74" type="line"/>
    </contour>
    <contour>
      <point x="557" y="304" type="line"/>
      <point x="557" y="367" type="line"/>
      <point x="175" y="367" type="line"/>
      <point x="175" y="304" type="line"/>
    </contour>
  </outline>
</glyph>
<glyph name="I" format="1">
	<unicode hex="0049"/>
	<advance width="395"/>
	<outline>
		<contour>
			<point x="179" y="74" type="line"/>
			<point x="28" y="59" type="line"/>
			<point x="28" y="0" type="line"/>
			<point x="367" y="0" type="line"/>
			<point x="367" y="59" type="line"/>
			<point x="212" y="74" type="line"/>
		</contour>
		<contour>
			<point x="179" y="578" type="line"/>
			<point x="212" y="578" type="line"/>
			<point x="367" y="593" type="line"/>
			<point x="367" y="652" type="line"/>
			<point x="28" y="652" type="line"/>
			<point x="28" y="593" type="line"/>
		</contour>
		<contour>
			<point x="98" y="310" type="line" smooth="yes"/>
			<point x="98" y="205"/>
			<point x="98" y="101"/>
			<point x="95" y="0" type="curve"/>
			<point x="299" y="0" type="line"/>
			<point x="296" y="103"/>
			<point x="296" y="207"/>
			<point x="296" y="311" type="curve" smooth="yes"/>
			<point x="296" y="342" type="line" smooth="yes"/>
			<point x="296" y="447"/>
			<point x="296" y="551"/>
			<point x="299" y="652" type="curve"/>
			<point x="95" y="652" type="line"/>
			<point x="98" y="549"/>
			<point x="98" y="445"/>
			<point x="98" y="342" type="curve" smooth="yes"/>
		</contour>
		<contour>
			<point name="aboveUC" x="197" y="682" type="move"/>
		</contour>
		<contour>
			<point name="ogonek" x="249" y="0" type="move"/>
		</contour>
		<contour>
			<point name="belowLC" x="197" y="-22" type="move"/>
		</contour>
	</outline>
</glyph>
<glyph name="L" format="1">
  <advance width="574"/>
  <unicode hex="004C"/>
  <outline>
    <contour>
      <point x="179" y="74" type="line"/>
      <point x="28" y="59" type="line"/>
      <point x="28" y="0" type="line"/>
      <point x="197" y="0" type="line"/>
      <point x="197" y="74" type="line"/>
    </contour>
    <contour>
      <point x="179" y="578" type="line"/>
      <point x="222" y="578" type="line"/>
      <point x="377" y="593" type="line"/>
      <point x="377" y="652" type="line"/>
      <point x="28" y="652" type="line"/>
      <point x="28" y="593" type="line"/>
    </contour>
    <contour>
      <point x="98" y="342" type="curve" smooth="yes"/>
      <point x="98" y="310" type="line" smooth="yes"/>
      <point x="98" y="205"/>
      <point x="98" y="101"/>
      <point x="95" y="0" type="curve"/>
      <point x="299" y="0" type="line"/>
      <point x="296" y="103"/>
      <point x="296" y="207"/>
      <point x="296" y="311" type="curve" smooth="yes"/>
      <point x="296" y="342" type="line" smooth="yes"/>
      <point x="296" y="447"/>
      <point x="296" y="551"/>
      <point x="299" y="652" type="curve"/>
      <point x="95" y="652" type="line"/>
      <point x="98" y="549"/>
      <point x="98" y="445"/>
    </contour>
    <contour>
      <point x="476" y="199" type="line"/>
      <point x="437" y="0" type="line"/>
      <point x="521" y="60" type="line"/>
      <point x="197" y="60" type="line"/>
      <point x="197" y="0" type="line"/>
      <point x="554" y="0" type="line"/>
      <point x="564" y="199" type="line"/>
    </contour>
  </outline>
</glyph>
<glyph name="M" format="1">
  <advance width="893"/>
  <unicode hex="004D"/>
  <outline>
    <contour>
      <point x="35" y="652" type="line"/>
      <point x="35" y="593" type="line"/>
      <point x="176" y="580" type="line"/>
      <point x="91" y="641" type="line"/>
      <point x="356" y="0" type="line"/>
      <point x="417" y="0" type="line"/>
      <point x="675" y="652" type="line"/>
      <point x="604" y="652" type="line"/>
      <point x="433" y="203" type="line"/>
      <point x="482" y="197" type="line"/>
      <point x="293" y="652" type="line"/>
    </contour>
    <contour>
      <point x="599" y="310" type="line"/>
      <point x="599" y="205"/>
      <point x="597" y="101"/>
      <point x="594" y="0" type="curve"/>
      <point x="798" y="0" type="line"/>
      <point x="795" y="103"/>
      <point x="795" y="207"/>
      <point x="795" y="311" type="curve" smooth="yes"/>
      <point x="795" y="342" type="line" smooth="yes"/>
      <point x="795" y="447"/>
      <point x="795" y="551"/>
      <point x="798" y="652" type="curve"/>
      <point x="652" y="652" type="line"/>
      <point x="599" y="545" type="line"/>
    </contour>
    <contour>
      <point x="115" y="74" type="line"/>
      <point x="10" y="59" type="line"/>
      <point x="10" y="0" type="line"/>
      <point x="264" y="0" type="line"/>
      <point x="264" y="59" type="line"/>
      <point x="160" y="74" type="line"/>
    </contour>
    <contour>
      <point x="678" y="74" type="line"/>
      <point x="527" y="59" type="line"/>
      <point x="527" y="0" type="line"/>
      <point x="865" y="0" type="line"/>
      <point x="865" y="59" type="line"/>
      <point x="711" y="74" type="line"/>
    </contour>
    <contour>
      <point x="670" y="578" type="line"/>
      <point x="711" y="578" type="line"/>
      <point x="865" y="593" type="line"/>
      <point x="865" y="652" type="line"/>
      <point x="670" y="652" type="line"/>
    </contour>
    <contour>
      <point x="114" y="652" type="line"/>
      <point x="108" y="0" type="line"/>
      <point x="168" y="0" type="line"/>
      <point x="171" y="652" type="line"/>
    </contour>
  </outline>
</glyph>
<glyph name="N" format="1">
  <advance width="725"/>
  <unicode hex="004E"/>
  <outline>
    <contour>
      <point x="616" y="59" type="line"/>
      <point x="616" y="652" type="line"/>
      <point x="546" y="652" type="line"/>
      <point x="546" y="59" type="line"/>
    </contour>
    <contour>
      <point x="599" y="578" type="line"/>
      <point x="701" y="593" type="line"/>
      <point x="701" y="652" type="line"/>
      <point x="428" y="652" type="line"/>
      <point x="428" y="593" type="line"/>
      <point x="568" y="578" type="line"/>
    </contour>
    <contour>
      <point x="131" y="74" type="line"/>
      <point x="24" y="59" type="line"/>
      <point x="24" y="0" type="line"/>
      <point x="297" y="0" type="line"/>
      <point x="297" y="59" type="line"/>
      <point x="163" y="74" type="line"/>
    </contour>
    <contour>
      <point x="109" y="652" type="line"/>
      <point x="109" y="0" type="line"/>
      <point x="179" y="0" type="line"/>
      <point x="179" y="652" type="line"/>
    </contour>
    <contour>
      <point x="24" y="652" type="line"/>
      <point x="24" y="592" type="line"/>
      <point x="128" y="585" type="line"/>
      <point x="72" y="615" type="line"/>
      <point x="133" y="528" type="line"/>
      <point x="511" y="-10" type="line"/>
      <point x="616" y="-10" type="line"/>
      <point x="616" y="190" type="line"/>
      <point x="279" y="652" type="line"/>
    </contour>
  </outline>
</glyph>
<glyph name="O" format="1">
	<unicode hex="004F"/>
	<advance width="700"/>
	<outline>
		<contour>
			<point x="233" y="326" type="curve" smooth="yes"/>
			<point x="233" y="497"/>
			<point x="265" y="612"/>
			<point x="350" y="612" type="curve" smooth="yes"/>
			<point x="435" y="612"/>
			<point x="467" y="497"/>
			<point x="467" y="326" type="curve" smooth="yes"/>
			<point x="467" y="154"/>
			<point x="435" y="41"/>
			<point x="350" y="41" type="curve" smooth="yes"/>
			<point x="265" y="41"/>
			<point x="233" y="154"/>
		</contour>
		<contour>
			<point x="350" y="672" type="curve" smooth="yes"/>
			<point x="182" y="672"/>
			<point x="28" y="561"/>
			<point x="28" y="326" type="curve" smooth="yes"/>
			<point x="28" y="91"/>
			<point x="181" y="-20"/>
			<point x="350" y="-20" type="curve" smooth="yes"/>
			<point x="519" y="-20"/>
			<point x="672" y="91"/>
			<point x="672" y="326" type="curve" smooth="yes"/>
			<point x="672" y="561"/>
			<point x="518" y="672"/>
		</contour>
		<contour>
			<point name="aboveUC" x="350" y="682" type="move"/>
		</contour>
		<contour>
			<point name="hornLC" x="492" y="669" type="move"/>
		</contour>
		<contour>
			<point name="ogonek" x="440" y="0" type="move"/>
		</contour>
		<contour>
			<point name="belowLC" x="350" y="-22" type="move"/>
		</contour>
	</outline>
</glyph>
<glyph name="Q" format="1">
  <advance width="700"/>
  <unicode hex="0051"/>
  <outline>
    <contour>
      <point x="490" y="-202" type="curve" smooth="yes"/>
      <point x="549" y="-202"/>
      <point x="601" y="-192"/>
      <point x="634" y="-170" type="curve"/>
      <point x="608" y="-106" type="line"/>
      <point x="586" y="-116"/>
      <point x="558" y="-118"/>
      <point x="538" y="-118" type="curve" smooth="yes"/>
      <point x="467" y="-118"/>
      <point x="425" y="-59"/>
      <point x="441" y="32" type="curve"/>
      <point x="253" y="32" type="line"/>
      <point x="253" y="14" type="line" smooth="yes"/>
      <point x="253" y="-116"/>
      <point x="338" y="-202"/>
    </contour>
    <component base="O"/>
  </outline>
</glyph>
<glyph name="S" format="1">
  <advance width="553"/>
  <unicode hex="0053"/>
  <outline>
    <contour>
      <point x="258" y="43" type="curve" smooth="yes"/>
      <point x="195" y="43"/>
      <point x="151" y="60"/>
      <point x="87" y="90" type="curve"/>
      <point x="169" y="19" type="line"/>
      <point x="143" y="184" type="line"/>
      <point x="37" y="184" type="line"/>
      <point x="31" y="32" type="line"/>
      <point x="93" y="-6"/>
      <point x="182" y="-20"/>
      <point x="257" y="-20" type="curve" smooth="yes"/>
      <point x="441" y="-20"/>
      <point x="528" y="68"/>
      <point x="528" y="186" type="curve" smooth="yes"/>
      <point x="528" y="290"/>
      <point x="475" y="344"/>
      <point x="349" y="404" type="curve" smooth="yes"/>
      <point x="299" y="428" type="line" smooth="yes"/>
      <point x="245" y="454"/>
      <point x="217" y="478"/>
      <point x="217" y="527" type="curve" smooth="yes"/>
      <point x="217" y="574"/>
      <point x="258" y="609"/>
      <point x="307" y="609" type="curve" smooth="yes"/>
      <point x="358" y="609"/>
      <point x="396" y="587"/>
      <point x="451" y="552" type="curve"/>
      <point x="364" y="629" type="line"/>
      <point x="387" y="478" type="line"/>
      <point x="491" y="478" type="line"/>
      <point x="500" y="622" type="line"/>
      <point x="449" y="654"/>
      <point x="374" y="672"/>
      <point x="301" y="672" type="curve" smooth="yes"/>
      <point x="140" y="672"/>
      <point x="43" y="598"/>
      <point x="43" y="476" type="curve" smooth="yes"/>
      <point x="43" y="362"/>
      <point x="110" y="302"/>
      <point x="234" y="243" type="curve" smooth="yes"/>
      <point x="278" y="222" type="line" smooth="yes"/>
      <point x="328" y="198"/>
      <point x="349" y="176"/>
      <point x="349" y="128" type="curve" smooth="yes"/>
      <point x="349" y="83"/>
      <point x="320" y="43"/>
    </contour>
  </outline>
</glyph>
<glyph name="U" format="1">
  <advance width="732"/>
  <unicode hex="0055"/>
  <outline>
    <contour>
      <point x="610" y="586" type="line"/>
      <point x="710" y="593" type="line"/>
      <point x="710" y="652" type="line"/>
      <point x="472" y="652" type="line"/>
      <point x="472" y="593" type="line"/>
      <point x="577" y="586" type="line"/>
    </contour>
    <contour>
      <point x="181" y="578" type="line"/>
      <point x="213" y="578" type="line"/>
      <point x="369" y="593" type="line"/>
      <point x="369" y="652" type="line"/>
      <point x="25" y="652" type="line"/>
      <point x="25" y="593" type="line"/>
    </contour>
    <contour>
      <point x="293" y="280" type="curve" smooth="yes"/>
      <point x="293" y="356" type="line" smooth="yes"/>
      <point x="293" y="455"/>
      <point x="293" y="555"/>
      <point x="296" y="652" type="curve"/>
      <point x="92" y="652" type="line"/>
      <point x="95" y="553"/>
      <point x="95" y="453"/>
      <point x="95" y="356" type="curve" smooth="yes"/>
      <point x="95" y="247" type="line" smooth="yes"/>
      <point x="95" y="50"/>
      <point x="206" y="-20"/>
      <point x="355" y="-20" type="curve" smooth="yes"/>
      <point x="532" y="-20"/>
      <point x="629" y="74"/>
      <point x="629" y="287" type="curve" smooth="yes"/>
      <point x="629" y="652" type="line"/>
      <point x="558" y="652" type="line"/>
      <point x="558" y="277" type="line" smooth="yes"/>
      <point x="558" y="137"/>
      <point x="506" y="79"/>
      <point x="426" y="79" type="curve" smooth="yes"/>
      <point x="334" y="79"/>
      <point x="293" y="134"/>
    </contour>
  </outline>
</glyph>
<glyph name="V" format="1">
  <advance width="656"/>
  <unicode hex="0056"/>
  <outline>
    <contour>
      <point x="567" y="578" type="line"/>
      <point x="656" y="593" type="line"/>
      <point x="656" y="652" type="line"/>
      <point x="445" y="652" type="line"/>
      <point x="445" y="598" type="line"/>
      <point x="554" y="578" type="line"/>
    </contour>
    <contour>
      <point x="197" y="578" type="line"/>
      <point x="348" y="598" type="line"/>
      <point x="348" y="652" type="line"/>
      <point x="5" y="652" type="line"/>
      <point x="5" y="593" type="line"/>
      <point x="156" y="578" type="line"/>
    </contour>
    <contour>
      <point x="263" y="0" type="line"/>
      <point x="383" y="0" type="line"/>
      <point x="612" y="652" type="line"/>
      <point x="543" y="652" type="line"/>
      <point x="370" y="140" type="line"/>
      <point x="402" y="170" type="line"/>
      <point x="246" y="652" type="line"/>
      <point x="33" y="652" type="line"/>
    </contour>
  </outline>
</glyph>
<glyph name="W" format="1">
  <advance width="989"/>
  <unicode hex="0057"/>
  <outline>
    <contour>
      <point x="902" y="578" type="line"/>
      <point x="989" y="593" type="line"/>
      <point x="989" y="652" type="line"/>
      <point x="784" y="652" type="line"/>
      <point x="784" y="593" type="line"/>
      <point x="873" y="578" type="line"/>
    </contour>
    <contour>
      <point x="591" y="578" type="line"/>
      <point x="715" y="593" type="line"/>
      <point x="715" y="652" type="line"/>
      <point x="404" y="652" type="line"/>
      <point x="404" y="593" type="line"/>
      <point x="524" y="578" type="line"/>
    </contour>
    <contour>
      <point x="189" y="578" type="line"/>
      <point x="331" y="593" type="line"/>
      <point x="331" y="652" type="line"/>
      <point x="5" y="652" type="line"/>
      <point x="5" y="593" type="line"/>
      <point x="150" y="578" type="line"/>
    </contour>
    <contour>
      <point x="300" y="0" type="line"/>
      <point x="374" y="147" type="line"/>
      <point x="248" y="652" type="line"/>
      <point x="38" y="652" type="line"/>
      <point x="236" y="0" type="line"/>
      <point x="356" y="0" type="line"/>
      <point x="515" y="531" type="line"/>
      <point x="468" y="486" type="line"/>
      <point x="613" y="0" type="line"/>
      <point x="733" y="0" type="line"/>
      <point x="935" y="652" type="line"/>
      <point x="866" y="652" type="line"/>
      <point x="679" y="0" type="line"/>
      <point x="750" y="147" type="line"/>
      <point x="614" y="652" type="line"/>
      <point x="485" y="652" type="line"/>
    </contour>
  </outline>
</glyph>
<glyph name="X" format="1">
  <advance width="657"/>
  <unicode hex="0058"/>
  <outline>
    <contour>
      <point x="97" y="65" type="line"/>
      <point x="14" y="59" type="line"/>
      <point x="14" y="0" type="line"/>
      <point x="217" y="0" type="line"/>
      <point x="217" y="59" type="line"/>
      <point x="123" y="65" type="line"/>
    </contour>
    <contour>
      <point x="495" y="74" type="line"/>
      <point x="440" y="74" type="line"/>
      <point x="295" y="59" type="line"/>
      <point x="295" y="0" type="line"/>
      <point x="643" y="0" type="line"/>
      <point x="643" y="59" type="line"/>
    </contour>
    <contour>
      <point x="542" y="588" type="line"/>
      <point x="633" y="593" type="line"/>
      <point x="633" y="652" type="line"/>
      <point x="422" y="652" type="line"/>
      <point x="422" y="593" type="line"/>
      <point x="515" y="588" type="line"/>
    </contour>
    <contour>
      <point x="160" y="578" type="line"/>
      <point x="222" y="578" type="line"/>
      <point x="368" y="593" type="line"/>
      <point x="368" y="652" type="line"/>
      <point x="21" y="652" type="line"/>
      <point x="21" y="593" type="line"/>
    </contour>
    <contour>
      <point x="262" y="364" type="line"/>
      <point x="34" y="0" type="line"/>
      <point x="118" y="0" type="line"/>
      <point x="317" y="344" type="line"/>
    </contour>
    <contour>
      <point x="624" y="0" type="line"/>
      <point x="273" y="652" type="line"/>
      <point x="40" y="652" type="line"/>
      <point x="391" y="0" type="line"/>
    </contour>
    <contour>
      <point x="397" y="310" type="line"/>
      <point x="605" y="652" type="line"/>
      <point x="521" y="652" type="line"/>
      <point x="344" y="335" type="line"/>
    </contour>
  </outline>
</glyph>
<glyph name="Z" format="1">
  <advance width="568"/>
  <unicode hex="005A"/>
  <outline>
    <contour>
      <point x="460" y="189" type="line"/>
      <point x="423" y="0" type="line"/>
      <point x="507" y="60" type="line"/>
      <point x="117" y="60" type="line"/>
      <point x="117" y="0" type="line"/>
      <point x="540" y="0" type="line"/>
      <point x="548" y="189" type="line"/>
    </contour>
    <contour>
      <point x="116" y="463" type="line"/>
      <point x="154" y="652" type="line"/>
      <point x="72" y="592" type="line"/>
      <point x="443" y="592" type="line"/>
      <point x="443" y="652" type="line"/>
      <point x="38" y="652" type="line"/>
      <point x="30" y="463" type="line"/>
    </contour>
    <contour>
      <point x="341" y="652" type="line"/>
      <point x="20" y="50" type="line"/>
      <point x="20" y="0" type="line"/>
      <point x="221" y="0" type="line"/>
      <point x="542" y="602" type="line"/>
      <point x="542" y="652" type="line"/>
    </contour>
  </outline>
</glyph>
<glyph name="grave" format="1">
	<unicode hex="0060"/>
	<advance width="400"/>
	<outline>
		<component base="gravecmb" xOffset="233"/>
		<contour>
			<point name="_aboveLC" x="211" y="520" type="move"/>
		</contour>
	</outline>
</glyph>
<glyph name="a" format="1">
  <advance width="540"/>
  <unicode hex="0061"/>
  <outline>
    <contour>
      <point x="475" y="81" type="curve" smooth="yes"/>
      <point x="475" y="310" type="line" smooth="yes"/>
      <point x="475" y="447"/>
      <point x="424" y="505"/>
      <point x="286" y="505" type="curve" smooth="yes"/>
      <point x="125" y="505"/>
      <point x="42" y="444"/>
      <point x="42" y="358" type="curve"/>
      <point x="52" y="322"/>
      <point x="79" y="304"/>
      <point x="118" y="304" type="curve" smooth="yes"/>
      <point x="161" y="304"/>
      <point x="200" y="336"/>
      <point x="200" y="417" type="curve" smooth="yes"/>
      <point x="200" y="480" type="line"/>
      <point x="120" y="438" type="line"/>
      <point x="166" y="448"/>
      <point x="190" y="451"/>
      <point x="215" y="451" type="curve" smooth="yes"/>
      <point x="278" y="451"/>
      <point x="291" y="423"/>
      <point x="291" y="338" type="curve" smooth="yes"/>
      <point x="291" y="79" type="line" smooth="yes"/>
      <point x="303" y="19"/>
      <point x="341" y="-15"/>
      <point x="414" y="-15" type="curve" smooth="yes"/>
      <point x="485" y="-15"/>
      <point x="524" y="9"/>
      <point x="548" y="70" type="curve"/>
      <point x="519" y="86" type="line"/>
      <point x="515" y="80" type="line" smooth="yes"/>
      <point x="507" y="68"/>
      <point x="500" y="64"/>
      <point x="492" y="64" type="curve" smooth="yes"/>
      <point x="481" y="64"/>
      <point x="475" y="71"/>
    </contour>
    <contour>
      <point x="197" y="145" type="curve" smooth="yes"/>
      <point x="197" y="199"/>
      <point x="234" y="231"/>
      <point x="262" y="244" type="curve" smooth="yes"/>
      <point x="291" y="258"/>
      <point x="343" y="271"/>
      <point x="391" y="284" type="curve"/>
      <point x="391" y="328" type="line"/>
      <point x="345" y="316"/>
      <point x="271" y="297"/>
      <point x="230" y="286" type="curve" smooth="yes"/>
      <point x="68" y="243"/>
      <point x="25" y="191"/>
      <point x="25" y="114" type="curve" smooth="yes"/>
      <point x="25" y="32"/>
      <point x="76" y="-15"/>
      <point x="155" y="-15" type="curve" smooth="yes"/>
      <point x="232" y="-15"/>
      <point x="262" y="17"/>
      <point x="306" y="65" type="curve" smooth="yes"/>
      <point x="353" y="117" type="line"/>
      <point x="344" y="129" type="line"/>
      <point x="296" y="93" type="line" smooth="yes"/>
      <point x="276" y="78"/>
      <point x="262" y="72"/>
      <point x="249" y="72" type="curve" smooth="yes"/>
      <point x="235" y="72"/>
      <point x="223" y="77"/>
      <point x="214" y="88" type="curve" smooth="yes"/>
      <point x="202" y="102"/>
      <point x="197" y="117"/>
    </contour>
  </outline>
</glyph>
<glyph name="b" format="1">
  <advance width="623"/>
  <unicode hex="0062"/>
  <outline>
    <contour>
      <point x="71" y="0" type="curve"/>
      <point x="116" y="71" type="line"/>
      <point x="28" y="51" type="line"/>
      <point x="28" y="0" type="line"/>
      <point x="233" y="-20" type="line"/>
      <point x="264" y="71" type="line"/>
      <point x="264" y="423" type="line"/>
      <point x="261" y="436" type="line"/>
      <point x="261" y="561" type="line"/>
      <point x="265" y="700" type="line"/>
      <point x="248" y="711" type="line"/>
      <point x="20" y="666" type="line"/>
      <point x="20" y="621" type="line"/>
      <point x="74" y="614" type="line"/>
      <point x="74" y="210" type="line" smooth="yes"/>
      <point x="74" y="148"/>
      <point x="73" y="45"/>
    </contour>
    <contour>
      <point x="399" y="248" type="curve" smooth="yes"/>
      <point x="399" y="134"/>
      <point x="364" y="81"/>
      <point x="311" y="81" type="curve" smooth="yes"/>
      <point x="261" y="81"/>
      <point x="239" y="117"/>
      <point x="202" y="168" type="curve"/>
      <point x="193" y="148" type="line"/>
      <point x="234" y="45"/>
      <point x="283" y="-15"/>
      <point x="384" y="-15" type="curve" smooth="yes"/>
      <point x="495" y="-15"/>
      <point x="601" y="84"/>
      <point x="601" y="248" type="curve" smooth="yes"/>
      <point x="601" y="419"/>
      <point x="513" y="505"/>
      <point x="403" y="505" type="curve" smooth="yes"/>
      <point x="307" y="505"/>
      <point x="240" y="448"/>
      <point x="183" y="333" type="curve"/>
      <point x="192" y="317" type="line"/>
      <point x="209" y="336"/>
      <point x="252" y="406"/>
      <point x="311" y="406" type="curve" smooth="yes"/>
      <point x="364" y="406"/>
      <point x="399" y="362"/>
    </contour>
  </outline>
</glyph>
<glyph name="c" format="1">
  <advance width="523"/>
  <unicode hex="0063"/>
  <outline>
    <contour>
      <point x="331" y="451" type="curve" smooth="yes"/>
      <point x="364" y="451"/>
      <point x="387" y="444"/>
      <point x="417" y="431" type="curve"/>
      <point x="334" y="474" type="line"/>
      <point x="337" y="409" type="line" smooth="yes"/>
      <point x="341" y="321"/>
      <point x="381" y="295"/>
      <point x="423" y="295" type="curve" smooth="yes"/>
      <point x="463" y="295"/>
      <point x="486" y="313"/>
      <point x="499" y="353" type="curve"/>
      <point x="494" y="435"/>
      <point x="420" y="505"/>
      <point x="308" y="505" type="curve" smooth="yes"/>
      <point x="147" y="505"/>
      <point x="22" y="410"/>
      <point x="22" y="244" type="curve" smooth="yes"/>
      <point x="22" y="70"/>
      <point x="145" y="-15"/>
      <point x="281" y="-15" type="curve" smooth="yes"/>
      <point x="376" y="-15"/>
      <point x="451" y="21"/>
      <point x="494" y="102" type="curve"/>
      <point x="455" y="140" type="line"/>
      <point x="427" y="113"/>
      <point x="391" y="93"/>
      <point x="341" y="93" type="curve" smooth="yes"/>
      <point x="273" y="93"/>
      <point x="222" y="155"/>
      <point x="222" y="266" type="curve" smooth="yes"/>
      <point x="222" y="404"/>
      <point x="285" y="451"/>
    </contour>
  </outline>
</glyph>
<glyph name="d" format="1">
  <advance width="605"/>
  <unicode hex="0064"/>
  <outline>
    <contour>
      <point x="224" y="242" type="curve" smooth="yes"/>
      <point x="224" y="353"/>
      <point x="263" y="409"/>
      <point x="318" y="409" type="curve" smooth="yes"/>
      <point x="360" y="409"/>
      <point x="384" y="382"/>
      <point x="416" y="338" type="curve"/>
      <point x="426" y="355" type="line"/>
      <point x="382" y="448"/>
      <point x="343" y="505"/>
      <point x="245" y="505" type="curve" smooth="yes"/>
      <point x="136" y="505"/>
      <point x="22" y="407"/>
      <point x="22" y="240" type="curve" smooth="yes"/>
      <point x="22" y="70"/>
      <point x="110" y="-15"/>
      <point x="220" y="-15" type="curve" smooth="yes"/>
      <point x="313" y="-15"/>
      <point x="379" y="36"/>
      <point x="433" y="158" type="curve"/>
      <point x="420" y="170" type="line"/>
      <point x="394" y="125"/>
      <point x="361" y="84"/>
      <point x="314" y="84" type="curve" smooth="yes"/>
      <point x="260" y="84"/>
      <point x="224" y="141"/>
    </contour>
    <contour>
      <point x="457" y="81" type="line"/>
      <point x="545" y="0" type="line"/>
      <point x="545" y="561" type="line"/>
      <point x="549" y="700" type="line"/>
      <point x="532" y="711" type="line"/>
      <point x="298" y="666" type="line"/>
      <point x="298" y="621" type="line"/>
      <point x="362" y="611" type="line"/>
      <point x="362" y="431" type="line"/>
      <point x="355" y="421" type="line"/>
      <point x="355" y="75" type="line"/>
      <point x="369" y="-10" type="line"/>
      <point x="581" y="0" type="line"/>
      <point x="581" y="51" type="line"/>
    </contour>
  </outline>
</glyph>
<glyph name="e" format="1">
  <advance width="526"/>
  <unicode hex="0065"/>
  <outline>
    <contour>
      <point x="291" y="505" type="curve" smooth="yes"/>
      <point x="160" y="505"/>
      <point x="22" y="419"/>
      <point x="22" y="247" type="curve" smooth="yes"/>
      <point x="22" y="82"/>
      <point x="132" y="-15"/>
      <point x="282" y="-15" type="curve" smooth="yes"/>
      <point x="381" y="-15"/>
      <point x="456" y="21"/>
      <point x="499" y="102" type="curve"/>
      <point x="460" y="140" type="line"/>
      <point x="432" y="113"/>
      <point x="396" y="93"/>
      <point x="346" y="93" type="curve" smooth="yes"/>
      <point x="281" y="93"/>
      <point x="222" y="144"/>
      <point x="222" y="264" type="curve" smooth="yes"/>
      <point x="222" y="409"/>
      <point x="246" y="451"/>
      <point x="278" y="451" type="curve" smooth="yes"/>
      <point x="305" y="451"/>
      <point x="330" y="426"/>
      <point x="330" y="357" type="curve" smooth="yes"/>
      <point x="330" y="306"/>
      <point x="317" y="290"/>
      <point x="269" y="290" type="curve" smooth="yes"/>
      <point x="101" y="290" type="line"/>
      <point x="101" y="233" type="line"/>
      <point x="501" y="233" type="line"/>
      <point x="505" y="251"/>
      <point x="506" y="265"/>
      <point x="506" y="286" type="curve" smooth="yes"/>
      <point x="506" y="407"/>
      <point x="434" y="505"/>
    </contour>
  </outline>
</glyph>
<glyph name="g" format="1">
  <advance width="553"/>
  <unicode hex="0067"/>
  <outline>
    <contour>
      <point x="245" y="-156" type="curve" smooth="yes"/>
      <point x="149" y="-156"/>
      <point x="110" y="-132"/>
      <point x="110" y="-75" type="curve" smooth="yes"/>
      <point x="110" y="-46"/>
      <point x="115" y="-35"/>
      <point x="129" y="-8" type="curve"/>
      <point x="111" y="2" type="line"/>
      <point x="45" y="-18"/>
      <point x="7" y="-58"/>
      <point x="7" y="-107" type="curve" smooth="yes"/>
      <point x="7" y="-164"/>
      <point x="50" y="-221"/>
      <point x="224" y="-221" type="curve" smooth="yes"/>
      <point x="433" y="-221"/>
      <point x="545" y="-138"/>
      <point x="545" y="-30" type="curve" smooth="yes"/>
      <point x="545" y="59"/>
      <point x="489" y="123"/>
      <point x="313" y="123" type="curve" smooth="yes"/>
      <point x="206" y="123" type="line" smooth="yes"/>
      <point x="163" y="123"/>
      <point x="143" y="140"/>
      <point x="143" y="167" type="curve" smooth="yes"/>
      <point x="143" y="183"/>
      <point x="148" y="196"/>
      <point x="157" y="211" type="curve"/>
      <point x="132" y="225" type="line"/>
      <point x="62" y="187"/>
      <point x="28" y="146"/>
      <point x="28" y="85" type="curve" smooth="yes"/>
      <point x="28" y="20"/>
      <point x="86" y="-49"/>
      <point x="227" y="-49" type="curve" smooth="yes"/>
      <point x="327" y="-49" type="line" smooth="yes"/>
      <point x="374" y="-49"/>
      <point x="390" y="-71"/>
      <point x="390" y="-91" type="curve" smooth="yes"/>
      <point x="390" y="-129"/>
      <point x="342" y="-156"/>
    </contour>
    <contour>
      <point x="28" y="346" type="curve" smooth="yes"/>
      <point x="28" y="260"/>
      <point x="91" y="186"/>
      <point x="249" y="186" type="curve" smooth="yes"/>
      <point x="407" y="186"/>
      <point x="470" y="260"/>
      <point x="470" y="346" type="curve" smooth="yes"/>
      <point x="470" y="433"/>
      <point x="407" y="505"/>
      <point x="249" y="505" type="curve" smooth="yes"/>
      <point x="91" y="505"/>
      <point x="28" y="433"/>
    </contour>
    <contour>
      <point x="249" y="455" type="curve" smooth="yes"/>
      <point x="286" y="455"/>
      <point x="305" y="416"/>
      <point x="305" y="346" type="curve" smooth="yes"/>
      <point x="305" y="276"/>
      <point x="289" y="236"/>
      <point x="249" y="236" type="curve" smooth="yes"/>
      <point x="209" y="236"/>
      <point x="195" y="276"/>
      <point x="195" y="346" type="curve" smooth="yes"/>
      <point x="195" y="416"/>
      <point x="212" y="455"/>
    </contour>
    <contour>
      <point x="406" y="450" type="line"/>
      <point x="406" y="415" type="line"/>
      <point x="548" y="415" type="line"/>
      <point x="548" y="498" type="line"/>
      <point x="532" y="508" type="line"/>
    </contour>
  </outline>
</glyph>
<glyph name="h" format="1">
  <advance width="624"/>
  <unicode hex="0068"/>
  <outline>
    <contour>
      <point x="410" y="505" type="curve" smooth="yes"/>
      <point x="338" y="505"/>
      <point x="293" y="479"/>
      <point x="214" y="363" type="curve"/>
      <point x="250" y="395" type="line"/>
      <point x="179" y="395" type="line"/>
      <point x="179" y="313" type="line"/>
      <point x="221" y="313" type="line"/>
      <point x="256" y="362"/>
      <point x="300" y="398"/>
      <point x="332" y="398" type="curve" smooth="yes"/>
      <point x="365" y="398"/>
      <point x="374" y="379"/>
      <point x="374" y="325" type="curve" smooth="yes"/>
      <point x="374" y="210" type="line" smooth="yes"/>
      <point x="374" y="146"/>
      <point x="373" y="45"/>
      <point x="371" y="0" type="curve"/>
      <point x="567" y="0" type="line"/>
      <point x="565" y="45"/>
      <point x="564" y="146"/>
      <point x="564" y="210" type="curve" smooth="yes"/>
      <point x="564" y="338" type="line" smooth="yes"/>
      <point x="564" y="447"/>
      <point x="499" y="505"/>
    </contour>
    <contour>
      <point x="413" y="71" type="line"/>
      <point x="330" y="51" type="line"/>
      <point x="330" y="0" type="line"/>
      <point x="607" y="0" type="line"/>
      <point x="607" y="51" type="line"/>
      <point x="510" y="71" type="line"/>
    </contour>
    <contour>
      <point x="211" y="71" type="line"/>
      <point x="113" y="71" type="line"/>
      <point x="27" y="51" type="line"/>
      <point x="27" y="0" type="line"/>
      <point x="303" y="0" type="line"/>
      <point x="303" y="51" type="line"/>
    </contour>
    <contour>
      <point x="74" y="210" type="line"/>
      <point x="74" y="148"/>
      <point x="73" y="45"/>
      <point x="71" y="0" type="curve"/>
      <point x="267" y="0" type="line"/>
      <point x="265" y="45"/>
      <point x="264" y="148"/>
      <point x="264" y="210" type="curve" smooth="yes"/>
      <point x="264" y="368" type="line"/>
      <point x="261" y="381" type="line"/>
      <point x="261" y="561" type="line"/>
      <point x="265" y="700" type="line"/>
      <point x="248" y="711" type="line"/>
      <point x="20" y="666" type="line"/>
      <point x="20" y="621" type="line"/>
      <point x="74" y="611" type="line"/>
    </contour>
  </outline>
</glyph>
<glyph name="j" format="1">
  <advance width="320"/>
  <unicode hex="006A"/>
  <outline>
    <contour>
      <point x="163" y="562" type="curve" smooth="yes"/>
      <point x="214" y="562"/>
      <point x="255" y="598"/>
      <point x="255" y="648" type="curve" smooth="yes"/>
      <point x="255" y="698"/>
      <point x="214" y="734"/>
      <point x="163" y="734" type="curve" smooth="yes"/>
      <point x="112" y="734"/>
      <point x="71" y="698"/>
      <point x="71" y="648" type="curve" smooth="yes"/>
      <point x="71" y="598"/>
      <point x="112" y="562"/>
    </contour>
    <contour>
      <point x="70" y="76" type="line"/>
      <point x="70" y="10"/>
      <point x="78" y="-92"/>
      <point x="68" y="-140" type="curve" smooth="yes"/>
      <point x="60" y="-179"/>
      <point x="41" y="-194"/>
      <point x="7" y="-194" type="curve" smooth="yes"/>
      <point x="-35" y="-194"/>
      <point x="-64" y="-176"/>
      <point x="-78" y="-150" type="curve"/>
      <point x="-72" y="-200" type="line"/>
      <point x="93" y="-208" type="line"/>
      <point x="61" y="-142" type="line" smooth="yes"/>
      <point x="33" y="-85"/>
      <point x="-3" y="-66"/>
      <point x="-47" y="-66" type="curve" smooth="yes"/>
      <point x="-92" y="-66"/>
      <point x="-129" y="-103"/>
      <point x="-132" y="-158" type="curve"/>
      <point x="-111" y="-198"/>
      <point x="-67" y="-232"/>
      <point x="12" y="-232" type="curve" smooth="yes"/>
      <point x="60" y="-232"/>
      <point x="135" y="-218"/>
      <point x="193" y="-160" type="curve" smooth="yes"/>
      <point x="240" y="-113"/>
      <point x="260" y="-67"/>
      <point x="260" y="35" type="curve" smooth="yes"/>
      <point x="260" y="345" type="line"/>
      <point x="263" y="494" type="line"/>
      <point x="245" y="505" type="line"/>
      <point x="13" y="436" type="line"/>
      <point x="13" y="395" type="line"/>
      <point x="67" y="386" type="line"/>
      <point x="69" y="346"/>
      <point x="70" y="315"/>
      <point x="70" y="260" type="curve" smooth="yes"/>
    </contour>
  </outline>
</glyph>
<glyph name="k" format="1">
  <advance width="619"/>
  <unicode hex="006B"/>
  <outline>
    <contour>
      <point x="479" y="425" type="line"/>
      <point x="590" y="440" type="line"/>
      <point x="590" y="487" type="line"/>
      <point x="356" y="487" type="line"/>
      <point x="356" y="440" type="line"/>
      <point x="459" y="425" type="line"/>
    </contour>
    <contour>
      <point x="481" y="487" type="line"/>
      <point x="165" y="185" type="line"/>
      <point x="165" y="122" type="line"/>
      <point x="567" y="487" type="line"/>
    </contour>
    <contour>
      <point x="20" y="666" type="line"/>
      <point x="20" y="621" type="line"/>
      <point x="74" y="611" type="line"/>
      <point x="74" y="210" type="line" smooth="yes"/>
      <point x="74" y="155"/>
      <point x="73" y="32"/>
      <point x="71" y="0" type="curve"/>
      <point x="267" y="0" type="line"/>
      <point x="265" y="32"/>
      <point x="264" y="155"/>
      <point x="264" y="220" type="curve" smooth="yes"/>
      <point x="264" y="561" type="line"/>
      <point x="268" y="700" type="line"/>
      <point x="251" y="711" type="line"/>
    </contour>
    <contour>
      <point x="211" y="71" type="line"/>
      <point x="113" y="71" type="line"/>
      <point x="27" y="51" type="line"/>
      <point x="27" y="0" type="line"/>
      <point x="308" y="0" type="line"/>
      <point x="308" y="51" type="line"/>
    </contour>
    <contour>
      <point x="578" y="16" type="line"/>
      <point x="413" y="376" type="line"/>
      <point x="280" y="259" type="line"/>
      <point x="385" y="0" type="line"/>
      <point x="617" y="0" type="line"/>
      <point x="617" y="51" type="line"/>
      <point x="473" y="89" type="line"/>
    </contour>
  </outline>
</glyph>
<glyph name="l" format="1">
  <advance width="334"/>
  <unicode hex="006C"/>
  <outline>
    <contour>
      <point x="213" y="71" type="line"/>
      <point x="116" y="71" type="line"/>
      <point x="27" y="51" type="line"/>
      <point x="27" y="0" type="line"/>
      <point x="311" y="0" type="line"/>
      <point x="311" y="51" type="line"/>
    </contour>
    <contour>
      <point x="20" y="666" type="line"/>
      <point x="20" y="621" type="line"/>
      <point x="74" y="611" type="line"/>
      <point x="74" y="210" type="line" smooth="yes"/>
      <point x="74" y="140"/>
      <point x="73" y="70"/>
      <point x="71" y="0" type="curve"/>
      <point x="267" y="0" type="line"/>
      <point x="265" y="70"/>
      <point x="264" y="140"/>
      <point x="264" y="210" type="curve" smooth="yes"/>
      <point x="264" y="561" type="line"/>
      <point x="268" y="700" type="line"/>
      <point x="251" y="711" type="line"/>
    </contour>
  </outline>
</glyph>
<glyph name="m" format="1">
  <advance width="910"/>
  <unicode hex="006D"/>
  <outline>
    <contour>
      <point x="406" y="505" type="curve" smooth="yes"/>
      <point x="328" y="505"/>
      <point x="278" y="463"/>
      <point x="212" y="363" type="curve"/>
      <point x="237" y="395" type="line"/>
      <point x="170" y="395" type="line"/>
      <point x="170" y="323" type="line"/>
      <point x="213" y="323" type="line"/>
      <point x="233" y="356"/>
      <point x="281" y="398"/>
      <point x="322" y="398" type="curve" smooth="yes"/>
      <point x="360" y="398"/>
      <point x="370" y="374"/>
      <point x="370" y="313" type="curve" smooth="yes"/>
      <point x="370" y="210" type="line" smooth="yes"/>
      <point x="370" y="146"/>
      <point x="369" y="45"/>
      <point x="367" y="0" type="curve"/>
      <point x="559" y="0" type="line"/>
      <point x="557" y="45"/>
      <point x="556" y="146"/>
      <point x="556" y="210" type="curve" smooth="yes"/>
      <point x="556" y="338" type="line" smooth="yes"/>
      <point x="556" y="447"/>
      <point x="504" y="505"/>
    </contour>
    <contour>
      <point x="697" y="505" type="curve" smooth="yes"/>
      <point x="630" y="505"/>
      <point x="581" y="478"/>
      <point x="503" y="363" type="curve"/>
      <point x="542" y="402" type="line"/>
      <point x="465" y="402" type="line"/>
      <point x="465" y="323" type="line"/>
      <point x="505" y="323" type="line"/>
      <point x="536" y="366"/>
      <point x="576" y="398"/>
      <point x="618" y="398" type="curve" smooth="yes"/>
      <point x="652" y="398"/>
      <point x="664" y="381"/>
      <point x="664" y="313" type="curve" smooth="yes"/>
      <point x="664" y="210" type="line" smooth="yes"/>
      <point x="664" y="146"/>
      <point x="663" y="45"/>
      <point x="661" y="0" type="curve"/>
      <point x="853" y="0" type="line"/>
      <point x="851" y="45"/>
      <point x="850" y="146"/>
      <point x="850" y="210" type="curve" smooth="yes"/>
      <point x="850" y="327" type="line" smooth="yes"/>
      <point x="850" y="444"/>
      <point x="806" y="505"/>
    </contour>
    <contour>
      <point x="263" y="0" type="line"/>
      <point x="261" y="45"/>
      <point x="260" y="148"/>
      <point x="260" y="210" type="curve"/>
      <point x="260" y="385" type="line"/>
      <point x="252" y="494" type="line"/>
      <point x="234" y="505" type="line"/>
      <point x="13" y="436" type="line"/>
      <point x="13" y="395" type="line"/>
      <point x="67" y="386" type="line"/>
      <point x="70" y="346"/>
      <point x="70" y="329"/>
      <point x="70" y="274" type="curve" smooth="yes"/>
      <point x="70" y="210" type="line" smooth="yes"/>
      <point x="70" y="148"/>
      <point x="69" y="45"/>
      <point x="67" y="0" type="curve"/>
    </contour>
    <contour>
      <point x="207" y="71" type="line"/>
      <point x="109" y="71" type="line"/>
      <point x="23" y="51" type="line"/>
      <point x="23" y="0" type="line"/>
      <point x="299" y="0" type="line"/>
      <point x="299" y="51" type="line"/>
    </contour>
    <contour>
      <point x="406" y="71" type="line"/>
      <point x="326" y="51" type="line"/>
      <point x="326" y="0" type="line"/>
      <point x="595" y="0" type="line"/>
      <point x="595" y="51" type="line"/>
      <point x="506" y="71" type="line"/>
    </contour>
    <contour>
      <point x="698" y="71" type="line"/>
      <point x="625" y="51" type="line"/>
      <point x="625" y="0" type="line"/>
      <point x="893" y="0" type="line"/>
      <point x="893" y="51" type="line"/>
      <point x="801" y="71" type="line"/>
    </contour>
  </outline>
</glyph>
<glyph name="o" format="1">
  <advance width="572"/>
  <unicode hex="006F"/>
  <outline>
    <contour>
      <point x="286" y="450" type="curve" smooth="yes"/>
      <point x="330" y="450"/>
      <point x="350" y="391"/>
      <point x="350" y="246" type="curve" smooth="yes"/>
      <point x="350" y="100"/>
      <point x="330" y="40"/>
      <point x="286" y="40" type="curve" smooth="yes"/>
      <point x="242" y="40"/>
      <point x="222" y="100"/>
      <point x="222" y="246" type="curve" smooth="yes"/>
      <point x="222" y="391"/>
      <point x="242" y="450"/>
    </contour>
    <contour>
      <point x="286" y="505" type="curve" smooth="yes"/>
      <point x="132" y="505"/>
      <point x="22" y="398"/>
      <point x="22" y="249" type="curve" smooth="yes"/>
      <point x="22" y="100"/>
      <point x="114" y="-15"/>
      <point x="286" y="-15" type="curve" smooth="yes"/>
      <point x="457" y="-15"/>
      <point x="550" y="97"/>
      <point x="550" y="249" type="curve" smooth="yes"/>
      <point x="550" y="401"/>
      <point x="440" y="505"/>
    </contour>
  </outline>
</glyph>
<glyph name="p" format="1">
  <advance width="623"/>
  <unicode hex="0070"/>
  <outline>
    <contour>
      <point x="399" y="248" type="curve" smooth="yes"/>
      <point x="399" y="134"/>
      <point x="364" y="81"/>
      <point x="311" y="81" type="curve" smooth="yes"/>
      <point x="261" y="81"/>
      <point x="239" y="117"/>
      <point x="202" y="168" type="curve"/>
      <point x="193" y="148" type="line"/>
      <point x="234" y="45"/>
      <point x="283" y="-15"/>
      <point x="384" y="-15" type="curve" smooth="yes"/>
      <point x="495" y="-15"/>
      <point x="601" y="84"/>
      <point x="601" y="248" type="curve" smooth="yes"/>
      <point x="601" y="419"/>
      <point x="513" y="505"/>
      <point x="403" y="505" type="curve" smooth="yes"/>
      <point x="307" y="505"/>
      <point x="240" y="448"/>
      <point x="183" y="333" type="curve"/>
      <point x="192" y="317" type="line"/>
      <point x="209" y="336"/>
      <point x="252" y="406"/>
      <point x="311" y="406" type="curve" smooth="yes"/>
      <point x="364" y="406"/>
      <point x="399" y="362"/>
    </contour>
    <contour>
      <point x="243" y="-150" type="line"/>
      <point x="116" y="-150" type="line"/>
      <point x="27" y="-170" type="line"/>
      <point x="27" y="-222" type="line"/>
      <point x="316" y="-222" type="line"/>
      <point x="316" y="-170" type="line"/>
    </contour>
    <contour>
      <point x="74" y="8" type="line"/>
      <point x="74" y="-53"/>
      <point x="73" y="-126"/>
      <point x="71" y="-222" type="curve"/>
      <point x="264" y="-222" type="line"/>
      <point x="262" y="-126"/>
      <point x="261" y="-53"/>
      <point x="261" y="8" type="curve" smooth="yes"/>
      <point x="261" y="69" type="line"/>
      <point x="264" y="84" type="line"/>
      <point x="264" y="401" type="line"/>
      <point x="259" y="421" type="line"/>
      <point x="253" y="496" type="line"/>
      <point x="236" y="505" type="line"/>
      <point x="17" y="436" type="line"/>
      <point x="17" y="395" type="line"/>
      <point x="71" y="386" type="line"/>
      <point x="73" y="346"/>
      <point x="74" y="329"/>
      <point x="74" y="274" type="curve" smooth="yes"/>
    </contour>
  </outline>
</glyph>
<glyph name="q" format="1">
  <advance width="605"/>
  <unicode hex="0071"/>
  <outline>
    <contour>
      <point x="224" y="242" type="curve" smooth="yes"/>
      <point x="224" y="353"/>
      <point x="261" y="409"/>
      <point x="320" y="409" type="curve" smooth="yes"/>
      <point x="354" y="409"/>
      <point x="389" y="391"/>
      <point x="426" y="344" type="curve"/>
      <point x="436" y="361" type="line"/>
      <point x="386" y="461"/>
      <point x="331" y="505"/>
      <point x="255" y="505" type="curve" smooth="yes"/>
      <point x="133" y="505"/>
      <point x="22" y="409"/>
      <point x="22" y="240" type="curve" smooth="yes"/>
      <point x="22" y="70"/>
      <point x="110" y="-15"/>
      <point x="220" y="-15" type="curve" smooth="yes"/>
      <point x="313" y="-15"/>
      <point x="379" y="36"/>
      <point x="433" y="158" type="curve"/>
      <point x="420" y="170" type="line"/>
      <point x="394" y="125"/>
      <point x="361" y="84"/>
      <point x="314" y="84" type="curve" smooth="yes"/>
      <point x="260" y="84"/>
      <point x="224" y="141"/>
    </contour>
    <contour>
      <point x="376" y="-150" type="line"/>
      <point x="303" y="-170" type="line"/>
      <point x="303" y="-222" type="line"/>
      <point x="584" y="-222" type="line"/>
      <point x="584" y="-170" type="line"/>
      <point x="501" y="-150" type="line"/>
    </contour>
    <contour>
      <point x="545" y="-12" type="curve" smooth="yes"/>
      <point x="545" y="360" type="line"/>
      <point x="548" y="495" type="line"/>
      <point x="513" y="505" type="line"/>
      <point x="355" y="439" type="line"/>
      <point x="355" y="81" type="line"/>
      <point x="358" y="67" type="line"/>
      <point x="358" y="-12" type="line" smooth="yes"/>
      <point x="358" y="-82"/>
      <point x="357" y="-152"/>
      <point x="355" y="-222" type="curve"/>
      <point x="548" y="-222" type="line"/>
      <point x="546" y="-152"/>
      <point x="545" y="-82"/>
    </contour>
  </outline>
</glyph>
<glyph name="r" format="1">
  <advance width="483"/>
  <unicode hex="0072"/>
  <outline>
    <contour>
      <point x="322" y="397" type="curve"/>
      <point x="279" y="407" type="line"/>
      <point x="302" y="369" type="line" smooth="yes"/>
      <point x="323" y="334"/>
      <point x="349" y="316"/>
      <point x="389" y="316" type="curve" smooth="yes"/>
      <point x="452" y="316"/>
      <point x="480" y="366"/>
      <point x="480" y="429" type="curve"/>
      <point x="466" y="485"/>
      <point x="437" y="505"/>
      <point x="388" y="505" type="curve" smooth="yes"/>
      <point x="333" y="505"/>
      <point x="259" y="442"/>
      <point x="247" y="308" type="curve"/>
      <point x="255" y="343" type="line"/>
      <point x="173" y="343" type="line"/>
      <point x="173" y="285" type="line"/>
      <point x="260" y="275" type="line"/>
      <point x="269" y="328"/>
      <point x="296" y="373"/>
    </contour>
    <contour>
      <point x="249" y="71" type="line"/>
      <point x="111" y="71" type="line"/>
      <point x="21" y="51" type="line"/>
      <point x="21" y="0" type="line"/>
      <point x="339" y="0" type="line"/>
      <point x="339" y="51" type="line"/>
    </contour>
    <contour>
      <point x="263" y="0" type="line"/>
      <point x="261" y="45"/>
      <point x="260" y="148"/>
      <point x="260" y="210" type="curve" smooth="yes"/>
      <point x="260" y="372" type="line"/>
      <point x="252" y="494" type="line"/>
      <point x="234" y="505" type="line"/>
      <point x="13" y="436" type="line"/>
      <point x="13" y="395" type="line"/>
      <point x="67" y="386" type="line"/>
      <point x="69" y="346"/>
      <point x="70" y="330"/>
      <point x="70" y="275" type="curve" smooth="yes"/>
      <point x="70" y="210" type="line" smooth="yes"/>
      <point x="70" y="148"/>
      <point x="69" y="45"/>
      <point x="67" y="0" type="curve"/>
    </contour>
  </outline>
</glyph>
<glyph name="s" format="1">
  <advance width="463"/>
  <unicode hex="0073"/>
  <outline>
    <contour>
      <point x="206" y="-15" type="curve" smooth="yes"/>
      <point x="352" y="-15"/>
      <point x="445" y="43"/>
      <point x="445" y="161" type="curve" smooth="yes"/>
      <point x="445" y="240"/>
      <point x="407" y="295"/>
      <point x="314" y="320" type="curve" smooth="yes"/>
      <point x="258" y="335" type="line" smooth="yes"/>
      <point x="189" y="354"/>
      <point x="178" y="374"/>
      <point x="178" y="395" type="curve" smooth="yes"/>
      <point x="178" y="429"/>
      <point x="207" y="446"/>
      <point x="245" y="446" type="curve" smooth="yes"/>
      <point x="293" y="446"/>
      <point x="310" y="438"/>
      <point x="347" y="416" type="curve"/>
      <point x="284" y="484" type="line"/>
      <point x="316" y="352" type="line"/>
      <point x="408" y="352" type="line"/>
      <point x="416" y="465" type="line"/>
      <point x="361" y="491"/>
      <point x="311" y="505"/>
      <point x="250" y="505" type="curve" smooth="yes"/>
      <point x="106" y="505"/>
      <point x="27" y="432"/>
      <point x="27" y="332" type="curve" smooth="yes"/>
      <point x="27" y="254"/>
      <point x="69" y="197"/>
      <point x="148" y="176" type="curve" smooth="yes"/>
      <point x="205" y="161" type="line" smooth="yes"/>
      <point x="272" y="143"/>
      <point x="286" y="123"/>
      <point x="286" y="96" type="curve" smooth="yes"/>
      <point x="286" y="58"/>
      <point x="256" y="44"/>
      <point x="206" y="44" type="curve" smooth="yes"/>
      <point x="161" y="44"/>
      <point x="127" y="58"/>
      <point x="80" y="84" type="curve"/>
      <point x="139" y="22" type="line"/>
      <point x="118" y="162" type="line"/>
      <point x="27" y="162" type="line"/>
      <point x="22" y="34" type="line"/>
      <point x="76" y="1"/>
      <point x="137" y="-15"/>
    </contour>
  </outline>
</glyph>
<glyph name="t" format="1">
  <advance width="372"/>
  <unicode hex="0074"/>
  <outline>
    <contour>
      <point x="165" y="487" type="line"/>
      <point x="165" y="412" type="line"/>
      <point x="351" y="412" type="line"/>
      <point x="351" y="487" type="line"/>
    </contour>
    <contour>
      <point x="259" y="145" type="curve"/>
      <point x="259" y="447" type="line"/>
      <point x="259" y="629" type="line"/>
      <point x="140" y="629" type="line"/>
      <point x="64" y="450" type="line"/>
      <point x="128" y="493" type="line"/>
      <point x="12" y="478" type="line"/>
      <point x="12" y="412" type="line"/>
      <point x="69" y="412" type="line"/>
      <point x="69" y="241" type="line" smooth="yes"/>
      <point x="69" y="202"/>
      <point x="68" y="173"/>
      <point x="68" y="134" type="curve" smooth="yes"/>
      <point x="68" y="27"/>
      <point x="125" y="-15"/>
      <point x="224" y="-15" type="curve" smooth="yes"/>
      <point x="306" y="-15"/>
      <point x="355" y="18"/>
      <point x="382" y="76" type="curve"/>
      <point x="357" y="99" type="line"/>
      <point x="340" y="86"/>
      <point x="325" y="79"/>
      <point x="308" y="79" type="curve" smooth="yes"/>
      <point x="280" y="79"/>
      <point x="259" y="100"/>
    </contour>
  </outline>
</glyph>
<glyph name="u" format="1">
  <advance width="617"/>
  <unicode hex="0075"/>
  <outline>
    <contour>
      <point x="603" y="0" type="line"/>
      <point x="603" y="51" type="line"/>
      <point x="474" y="78" type="line"/>
      <point x="557" y="1" type="line"/>
      <point x="557" y="345" type="line"/>
      <point x="560" y="487" type="line"/>
      <point x="542" y="498" type="line"/>
      <point x="321" y="458" type="line"/>
      <point x="321" y="418" type="line"/>
      <point x="405" y="398" type="line"/>
      <point x="369" y="436" type="line"/>
      <point x="365" y="107" type="line"/>
      <point x="371" y="-10" type="line"/>
    </contour>
    <contour>
      <point x="257" y="345" type="line"/>
      <point x="262" y="487" type="line"/>
      <point x="244" y="498" type="line"/>
      <point x="17" y="463" type="line"/>
      <point x="17" y="418" type="line"/>
      <point x="105" y="398" type="line"/>
      <point x="69" y="435" type="line"/>
      <point x="65" y="165" type="line" smooth="yes"/>
      <point x="63" y="33"/>
      <point x="123" y="-15"/>
      <point x="211" y="-15" type="curve" smooth="yes"/>
      <point x="300" y="-15"/>
      <point x="366" y="45"/>
      <point x="410" y="139" type="curve"/>
      <point x="379" y="105" type="line"/>
      <point x="450" y="105" type="line"/>
      <point x="450" y="177" type="line"/>
      <point x="405" y="177" type="line"/>
      <point x="383" y="138"/>
      <point x="336" y="92"/>
      <point x="301" y="92" type="curve" smooth="yes"/>
      <point x="275" y="92"/>
      <point x="257" y="108"/>
      <point x="257" y="160" type="curve" smooth="yes"/>
    </contour>
  </outline>
</glyph>
<glyph name="v" format="1">
  <advance width="536"/>
  <unicode hex="0076"/>
  <outline>
    <contour>
      <point x="444" y="425" type="line"/>
      <point x="531" y="440" type="line"/>
      <point x="531" y="487" type="line"/>
      <point x="343" y="487" type="line"/>
      <point x="343" y="440" type="line"/>
      <point x="420" y="425" type="line"/>
    </contour>
    <contour>
      <point x="14" y="487" type="line"/>
      <point x="216" y="0" type="line"/>
      <point x="306" y="0" type="line"/>
      <point x="493" y="487" type="line"/>
      <point x="417" y="487" type="line"/>
      <point x="261" y="21" type="line"/>
      <point x="338" y="151" type="line"/>
      <point x="217" y="487" type="line"/>
    </contour>
    <contour>
      <point x="217" y="416" type="line"/>
      <point x="291" y="440" type="line"/>
      <point x="291" y="487" type="line"/>
      <point x="-10" y="487" type="line"/>
      <point x="-10" y="440" type="line"/>
      <point x="83" y="416" type="line"/>
    </contour>
  </outline>
</glyph>
<glyph name="w" format="1">
	<unicode hex="0077"/>
	<advance width="800"/>
	<outline>
		<contour>
			<point x="417" y="425" type="line"/>
			<point x="468" y="425" type="line"/>
			<point x="565" y="440" type="line"/>
			<point x="565" y="487" type="line"/>
			<point x="311" y="487" type="line"/>
			<point x="311" y="440" type="line"/>
		</contour>
		<contour>
			<point x="152" y="425" type="line"/>
			<point x="268" y="440" type="line"/>
			<point x="268" y="487" type="line"/>
			<point x="-10" y="487" type="line"/>
			<point x="-10" y="440" type="line"/>
			<point x="87" y="425" type="line"/>
		</contour>
		<contour>
			<point x="708" y="429" type="line"/>
			<point x="795" y="440" type="line"/>
			<point x="795" y="487" type="line"/>
			<point x="613" y="487" type="line"/>
			<point x="613" y="440" type="line"/>
			<point x="692" y="429" type="line"/>
		</contour>
		<contour>
			<point x="381" y="487" type="line"/>
			<point x="276" y="168" type="line"/>
			<point x="299" y="153" type="line"/>
			<point x="202" y="487" type="line"/>
			<point x="10" y="487" type="line"/>
			<point x="186" y="0" type="line"/>
			<point x="276" y="0" type="line"/>
			<point x="412" y="391" type="line"/>
			<point x="365" y="381" type="line"/>
			<point x="378" y="311"/>
			<point x="412" y="209"/>
			<point x="492" y="0" type="curve"/>
			<point x="582" y="0" type="line"/>
			<point x="757" y="487" type="line"/>
			<point x="681" y="487" type="line"/>
			<point x="575" y="168" type="line"/>
			<point x="604" y="153" type="line"/>
			<point x="502" y="487" type="line"/>
		</contour>
		<contour>
			<point name="aboveLC" x="424" y="520" type="move"/>
		</contour>
		<contour>
			<point name="belowLC" x="401" y="-22" type="move"/>
		</contour>
	</outline>
</glyph>
<glyph name="x" format="1">
  <advance width="563"/>
  <unicode hex="0078"/>
  <outline>
    <contour>
      <point x="30" y="487" type="line"/>
      <point x="205" y="192" type="line"/>
      <point x="319" y="0" type="line"/>
      <point x="540" y="0" type="line"/>
      <point x="355" y="307" type="line"/>
      <point x="246" y="487" type="line"/>
    </contour>
    <contour>
      <point x="95" y="63" type="line"/>
      <point x="10" y="51" type="line"/>
      <point x="10" y="0" type="line"/>
      <point x="195" y="0" type="line"/>
      <point x="195" y="51" type="line"/>
      <point x="133" y="63" type="line"/>
    </contour>
    <contour>
      <point x="219" y="425" type="line"/>
      <point x="316" y="440" type="line"/>
      <point x="316" y="487" type="line"/>
      <point x="12" y="487" type="line"/>
      <point x="12" y="440" type="line"/>
      <point x="117" y="425" type="line"/>
    </contour>
    <contour>
      <point x="389" y="71" type="line"/>
      <point x="249" y="51" type="line"/>
      <point x="249" y="0" type="line"/>
      <point x="553" y="0" type="line"/>
      <point x="553" y="51" type="line"/>
      <point x="441" y="71" type="line"/>
    </contour>
    <contour>
      <point x="461" y="426" type="line"/>
      <point x="532" y="440" type="line"/>
      <point x="532" y="487" type="line"/>
      <point x="363" y="487" type="line"/>
      <point x="363" y="440" type="line"/>
      <point x="424" y="426" type="line"/>
    </contour>
    <contour>
      <point x="119" y="0" type="line"/>
      <point x="297" y="284" type="line"/>
      <point x="253" y="307" type="line"/>
      <point x="38" y="0" type="line"/>
    </contour>
    <contour>
      <point x="437" y="487" type="line"/>
      <point x="278" y="229" type="line"/>
      <point x="315" y="203" type="line"/>
      <point x="517" y="487" type="line"/>
    </contour>
  </outline>
</glyph>
<glyph name="y" format="1">
  <advance width="543"/>
  <unicode hex="0079"/>
  <outline>
    <contour>
      <point x="446" y="425" type="line"/>
      <point x="538" y="440" type="line"/>
      <point x="538" y="487" type="line"/>
      <point x="358" y="487" type="line"/>
      <point x="358" y="440" type="line"/>
      <point x="427" y="425" type="line"/>
    </contour>
    <contour>
      <point x="220" y="416" type="line"/>
      <point x="293" y="441" type="line"/>
      <point x="293" y="487" type="line"/>
      <point x="-10" y="487" type="line"/>
      <point x="-10" y="440" type="line"/>
      <point x="83" y="416" type="line"/>
    </contour>
    <contour>
      <point x="343" y="137" type="line"/>
      <point x="218" y="487" type="line"/>
      <point x="15" y="487" type="line"/>
      <point x="256" y="-67" type="line"/>
    </contour>
    <contour>
      <point x="114" y="-222" type="curve" smooth="yes"/>
      <point x="211" y="-222"/>
      <point x="247" y="-167"/>
      <point x="289" y="-59" type="curve" smooth="yes"/>
      <point x="500" y="487" type="line" smooth="yes"/>
      <point x="434" y="487" type="line"/>
      <point x="244" y="-47" type="line" smooth="yes"/>
      <point x="223" y="-105"/>
      <point x="188" y="-144"/>
      <point x="148" y="-171" type="curve"/>
      <point x="180" y="-186" type="line"/>
      <point x="219" y="-168" type="line"/>
      <point x="172" y="-127" type="line" smooth="yes"/>
      <point x="133" y="-93"/>
      <point x="114" y="-89"/>
      <point x="83" y="-89" type="curve" smooth="yes"/>
      <point x="56" y="-89"/>
      <point x="28" y="-106"/>
      <point x="13" y="-140" type="curve"/>
      <point x="13" y="-190"/>
      <point x="61" y="-222"/>
    </contour>
  </outline>
</glyph>
<glyph name="z" format="1">
  <advance width="468"/>
  <unicode hex="007A"/>
  <outline>
    <contour>
      <point x="28" y="487" type="line"/>
      <point x="20" y="333" type="line"/>
      <point x="112" y="329" type="line"/>
      <point x="151" y="487" type="line"/>
      <point x="73" y="440" type="line"/>
      <point x="277" y="440" type="line"/>
      <point x="277" y="487" type="line"/>
      <point x="14" y="41" type="line"/>
      <point x="14" y="0" type="line"/>
      <point x="448" y="0" type="line"/>
      <point x="458" y="169" type="line"/>
      <point x="365" y="169" type="line"/>
      <point x="324" y="0" type="line"/>
      <point x="410" y="48" type="line"/>
      <point x="199" y="48" type="line"/>
      <point x="199" y="0" type="line"/>
      <point x="450" y="447" type="line"/>
      <point x="450" y="487" type="line"/>
    </contour>
  </outline>
</glyph>
<glyph name="braceleft" format="1">
  <advance width="334"/>
  <unicode hex="007B"/>
  <outline>
    <contour>
      <point x="40" y="248" type="line"/>
      <point x="124" y="228"/>
      <point x="139" y="205"/>
      <point x="139" y="170" type="curve" smooth="yes"/>
      <point x="139" y="98"/>
      <point x="79" y="49"/>
      <point x="79" y="-27" type="curve" smooth="yes"/>
      <point x="79" y="-119"/>
      <point x="164" y="-159"/>
      <point x="275" y="-159" type="curve" smooth="yes"/>
      <point x="304" y="-159" type="line"/>
      <point x="304" y="-100" type="line"/>
      <point x="277" y="-97" type="line" smooth="yes"/>
      <point x="242" y="-93"/>
      <point x="219" y="-64"/>
      <point x="219" y="-23" type="curve" smooth="yes"/>
      <point x="219" y="25"/>
      <point x="250" y="81"/>
      <point x="250" y="140" type="curve" smooth="yes"/>
      <point x="250" y="222"/>
      <point x="192" y="285"/>
      <point x="75" y="293" type="curve"/>
      <point x="75" y="263" type="line"/>
      <point x="192" y="271"/>
      <point x="250" y="334"/>
      <point x="250" y="416" type="curve" smooth="yes"/>
      <point x="250" y="475"/>
      <point x="219" y="531"/>
      <point x="219" y="579" type="curve" smooth="yes"/>
      <point x="219" y="620"/>
      <point x="242" y="649"/>
      <point x="277" y="653" type="curve" smooth="yes"/>
      <point x="304" y="656" type="line"/>
      <point x="304" y="715" type="line"/>
      <point x="275" y="715" type="line" smooth="yes"/>
      <point x="164" y="715"/>
      <point x="79" y="675"/>
      <point x="79" y="583" type="curve" smooth="yes"/>
      <point x="79" y="507"/>
      <point x="139" y="458"/>
      <point x="139" y="386" type="curve" smooth="yes"/>
      <point x="139" y="351"/>
      <point x="124" y="328"/>
      <point x="40" y="308" type="curve"/>
    </contour>
  </outline>
</glyph>
<glyph name="bar" format="1">
  <advance width="280"/>
  <unicode hex="007C"/>
  <outline>
    <contour>
      <point x="83" y="-250" type="line"/>
      <point x="197" y="-250" type="line"/>
      <point x="197" y="750" type="line"/>
      <point x="83" y="750" type="line"/>
    </contour>
  </outline>
</glyph>
<glyph name="asciitilde" format="1">
  <advance width="550"/>
  <unicode hex="007E"/>
  <outline>
    <contour>
      <point x="301" y="392" type="curve" smooth="yes"/>
      <point x="252" y="430"/>
      <point x="214" y="450"/>
      <point x="175" y="450" type="curve" smooth="yes"/>
      <point x="99" y="450"/>
      <point x="36" y="404"/>
      <point x="36" y="257" type="curve"/>
      <point x="123" y="249" type="line"/>
      <point x="127" y="323"/>
      <point x="145" y="346"/>
      <point x="172" y="346" type="curve" smooth="yes"/>
      <point x="188" y="346"/>
      <point x="198" y="338"/>
      <point x="249" y="298" type="curve" smooth="yes"/>
      <point x="298" y="260"/>
      <point x="336" y="240"/>
      <point x="374" y="240" type="curve" smooth="yes"/>
      <point x="447" y="240"/>
      <point x="514" y="286"/>
      <point x="514" y="433" type="curve"/>
      <point x="427" y="441" type="line"/>
      <point x="423" y="367"/>
      <point x="405" y="344"/>
      <point x="379" y="344" type="curve" smooth="yes"/>
      <point x="362" y="344"/>
      <point x="352" y="352"/>
    </contour>
  </outline>
</glyph>
<glyph name="yen" format="1">
  <advance width="560"/>
  <unicode hex="00A5"/>
  <outline>
    <contour>
      <point x="62" y="140" type="line"/>
      <point x="498" y="140" type="line"/>
      <point x="498" y="200" type="line"/>
      <point x="62" y="200" type="line"/>
    </contour>
    <contour>
      <point x="62" y="266" type="line"/>
      <point x="498" y="266" type="line"/>
      <point x="498" y="326" type="line"/>
      <point x="62" y="326" type="line"/>
    </contour>
    <contour>
      <point x="244" y="72" type="line"/>
      <point x="101" y="58" type="line"/>
      <point x="101" y="0" type="line"/>
      <point x="458" y="0" type="line"/>
      <point x="458" y="58" type="line"/>
      <point x="315" y="72" type="line"/>
    </contour>
    <contour>
      <point x="132" y="548" type="line"/>
      <point x="165" y="548" type="line"/>
      <point x="307" y="562" type="line"/>
      <point x="307" y="620" type="line"/>
      <point x="-4" y="620" type="line"/>
      <point x="-4" y="562" type="line"/>
    </contour>
    <contour>
      <point x="449" y="548" type="line"/>
      <point x="493" y="548" type="line"/>
      <point x="563" y="562" type="line"/>
      <point x="563" y="620" type="line"/>
      <point x="365" y="620" type="line"/>
      <point x="365" y="562" type="line"/>
    </contour>
    <contour>
      <point x="188" y="189" type="line"/>
      <point x="188" y="131"/>
      <point x="188" y="101"/>
      <point x="185" y="0" type="curve"/>
      <point x="375" y="0" type="line"/>
      <point x="372" y="100"/>
      <point x="372" y="132"/>
      <point x="372" y="189" type="curve" smooth="yes"/>
      <point x="372" y="301" type="line"/>
      <point x="188" y="301" type="line"/>
    </contour>
    <contour>
      <point x="350" y="245" type="line"/>
      <point x="544" y="620" type="line"/>
      <point x="462" y="620" type="line"/>
      <point x="314" y="309" type="line"/>
      <point x="346" y="309" type="line"/>
      <point x="203" y="620" type="line"/>
      <point x="11" y="620" type="line"/>
      <point x="211" y="245" type="line"/>
    </contour>
  </outline>
</glyph>
<glyph name="mu.math" format="1">
  <advance width="599"/>
  <unicode hex="00B5"/>
  <outline>
    <contour>
      <point x="259" y="-15" type="curve" smooth="yes"/>
      <point x="358" y="-15"/>
      <point x="412" y="41"/>
      <point x="445" y="198" type="curve"/>
      <point x="431" y="205" type="line"/>
      <point x="390" y="175"/>
      <point x="345" y="145"/>
      <point x="291" y="145" type="curve" smooth="yes"/>
      <point x="211" y="145"/>
      <point x="141" y="180"/>
      <point x="141" y="289" type="curve" smooth="yes"/>
      <point x="141" y="323" type="line"/>
      <point x="104" y="323" type="line"/>
      <point x="104" y="184" type="line" smooth="yes"/>
      <point x="104" y="60"/>
      <point x="182" y="-15"/>
    </contour>
    <contour>
      <point x="57" y="159" type="line"/>
      <point x="21" y="-11" type="line" smooth="yes"/>
      <point x="10" y="-65"/>
      <point x="-3" y="-110"/>
      <point x="-3" y="-141" type="curve" smooth="yes"/>
      <point x="-3" y="-207"/>
      <point x="29" y="-232"/>
      <point x="68" y="-232" type="curve" smooth="yes"/>
      <point x="106" y="-232"/>
      <point x="129" y="-225"/>
      <point x="149" y="-201" type="curve"/>
      <point x="125" y="130" type="line"/>
      <point x="141" y="139" type="line"/>
      <point x="141" y="359" type="line"/>
      <point x="149" y="489" type="line"/>
      <point x="131" y="500" type="line"/>
      <point x="40" y="466" type="line"/>
      <point x="57" y="314" type="line"/>
    </contour>
    <contour>
      <point x="490" y="359" type="line"/>
      <point x="499" y="489" type="line"/>
      <point x="481" y="500" type="line"/>
      <point x="390" y="466" type="line"/>
      <point x="407" y="314" type="line"/>
      <point x="407" y="128" type="line" smooth="yes"/>
      <point x="407" y="31"/>
      <point x="462" y="-15"/>
      <point x="517" y="-15" type="curve" smooth="yes"/>
      <point x="543" y="-15"/>
      <point x="568" y="-7"/>
      <point x="596" y="20" type="curve"/>
      <point x="576" y="154" type="line"/>
      <point x="562" y="149"/>
      <point x="548" y="145"/>
      <point x="531" y="145" type="curve" smooth="yes"/>
      <point x="508" y="145"/>
      <point x="490" y="163"/>
      <point x="490" y="204" type="curve" smooth="yes"/>
    </contour>
  </outline>
</glyph>
<glyph name="AE" format="1">
  <advance width="880"/>
  <unicode hex="00C6"/>
  <outline>
    <contour>
      <point x="387" y="300" type="line"/>
      <point x="387" y="205"/>
      <point x="387" y="101"/>
      <point x="384" y="0" type="curve"/>
      <point x="588" y="0" type="line"/>
      <point x="585" y="103"/>
      <point x="585" y="207"/>
      <point x="585" y="311" type="curve" smooth="yes"/>
      <point x="585" y="342" type="line" smooth="yes"/>
      <point x="585" y="447"/>
      <point x="585" y="551"/>
      <point x="588" y="652" type="curve"/>
      <point x="387" y="652" type="line"/>
    </contour>
    <contour>
      <point x="114" y="74" type="line"/>
      <point x="10" y="59" type="line"/>
      <point x="10" y="0" type="line"/>
      <point x="220" y="0" type="line"/>
      <point x="220" y="59" type="line"/>
      <point x="131" y="74" type="line"/>
    </contour>
    <contour>
      <point x="674" y="332" type="line"/>
      <point x="689" y="235" type="line"/>
      <point x="752" y="235" type="line"/>
      <point x="752" y="442" type="line"/>
      <point x="689" y="442" type="line"/>
      <point x="674" y="350" type="line"/>
    </contour>
    <contour>
      <point x="766" y="170" type="line"/>
      <point x="737" y="0" type="line"/>
      <point x="820" y="58" type="line"/>
      <point x="486" y="58" type="line"/>
      <point x="486" y="0" type="line"/>
      <point x="853" y="0" type="line"/>
      <point x="860" y="170" type="line"/>
    </contour>
    <contour>
      <point x="746" y="482" type="line"/>
      <point x="840" y="482" type="line"/>
      <point x="833" y="652" type="line"/>
      <point x="486" y="652" type="line"/>
      <point x="486" y="593" type="line"/>
      <point x="800" y="593" type="line"/>
      <point x="717" y="652" type="line"/>
    </contour>
    <contour>
      <point x="468" y="74" type="line"/>
      <point x="317" y="59" type="line"/>
      <point x="317" y="0" type="line"/>
      <point x="486" y="0" type="line"/>
      <point x="486" y="74" type="line"/>
    </contour>
    <contour>
      <point x="358" y="578" type="line"/>
      <point x="486" y="578" type="line"/>
      <point x="486" y="652" type="line"/>
      <point x="207" y="652" type="line"/>
      <point x="207" y="593" type="line"/>
    </contour>
    <contour>
      <point x="333" y="652" type="line"/>
      <point x="37" y="0" type="line"/>
      <point x="113" y="0" type="line"/>
      <point x="409" y="652" type="line"/>
    </contour>
    <contour>
      <point x="487" y="242" type="line"/>
      <point x="487" y="305" type="line"/>
      <point x="207" y="305" type="line"/>
      <point x="176" y="242" type="line"/>
    </contour>
    <contour>
      <point x="704" y="370" type="line"/>
      <point x="487" y="370" type="line"/>
      <point x="487" y="306" type="line"/>
      <point x="704" y="306" type="line"/>
    </contour>
  </outline>
</glyph>
<glyph name="Oslash" format="1">
  <advance width="700"/>
  <unicode hex="00D8"/>
  <outline>
    <contour>
      <point x="654" y="640" type="line"/>
      <point x="593" y="692" type="line"/>
      <point x="46" y="12" type="line"/>
      <point x="107" y="-40" type="line"/>
    </contour>
    <component base="O"/>
  </outline>
</glyph>
<glyph name="germandbls" format="1">
  <advance width="687"/>
  <unicode hex="00DF"/>
  <outline>
    <contour>
      <point x="182" y="71" type="line"/>
      <point x="121" y="71" type="line"/>
      <point x="28" y="51" type="line"/>
      <point x="28" y="0" type="line"/>
      <point x="182" y="0" type="line"/>
    </contour>
    <contour>
      <point x="74" y="210" type="line"/>
      <point x="74" y="140"/>
      <point x="73" y="70"/>
      <point x="71" y="0" type="curve"/>
      <point x="267" y="0" type="line"/>
      <point x="265" y="70"/>
      <point x="264" y="140"/>
      <point x="264" y="210" type="curve" smooth="yes"/>
      <point x="264" y="404" type="line" smooth="yes"/>
      <point x="264" y="518"/>
      <point x="269" y="592"/>
      <point x="294" y="634" type="curve" smooth="yes"/>
      <point x="311" y="663"/>
      <point x="337" y="676"/>
      <point x="377" y="676" type="curve" smooth="yes"/>
      <point x="430" y="676"/>
      <point x="466" y="627"/>
      <point x="466" y="566" type="curve" smooth="yes"/>
      <point x="466" y="526"/>
      <point x="456" y="493"/>
      <point x="410" y="456" type="curve" smooth="yes"/>
      <point x="350" y="407"/>
      <point x="314" y="384"/>
      <point x="314" y="326" type="curve" smooth="yes"/>
      <point x="314" y="248"/>
      <point x="364" y="214"/>
      <point x="439" y="185" type="curve" smooth="yes"/>
      <point x="500" y="160"/>
      <point x="521" y="144"/>
      <point x="521" y="101" type="curve" smooth="yes"/>
      <point x="521" y="63"/>
      <point x="490" y="44"/>
      <point x="442" y="44" type="curve" smooth="yes"/>
      <point x="401" y="44"/>
      <point x="374" y="46"/>
      <point x="327" y="67" type="curve"/>
      <point x="426" y="5" type="line"/>
      <point x="405" y="145" type="line"/>
      <point x="314" y="145" type="line"/>
      <point x="309" y="17" type="line"/>
      <point x="350" y="-8"/>
      <point x="401" y="-15"/>
      <point x="450" y="-15" type="curve" smooth="yes"/>
      <point x="589" y="-15"/>
      <point x="677" y="59"/>
      <point x="677" y="158" type="curve" smooth="yes"/>
      <point x="677" y="244"/>
      <point x="638" y="293"/>
      <point x="558" y="330" type="curve" smooth="yes"/>
      <point x="462" y="375"/>
      <point x="456" y="387"/>
      <point x="456" y="402" type="curve" smooth="yes"/>
      <point x="456" y="416"/>
      <point x="466" y="427"/>
      <point x="534" y="463" type="curve" smooth="yes"/>
      <point x="602" y="498"/>
      <point x="624" y="524"/>
      <point x="624" y="578" type="curve" smooth="yes"/>
      <point x="624" y="663"/>
      <point x="544" y="731"/>
      <point x="390" y="731" type="curve" smooth="yes"/>
      <point x="305" y="731"/>
      <point x="227" y="711"/>
      <point x="165" y="663" type="curve" smooth="yes"/>
      <point x="116" y="625"/>
      <point x="74" y="563"/>
      <point x="74" y="459" type="curve" smooth="yes"/>
    </contour>
  </outline>
</glyph>
<glyph name="oslash" format="1">
  <advance width="572"/>
  <unicode hex="00F8"/>
  <outline>
    <contour>
      <point x="521" y="484" type="line"/>
      <point x="469" y="527" type="line"/>
      <point x="53" y="2" type="line"/>
      <point x="106" y="-40" type="line"/>
    </contour>
    <component base="o"/>
  </outline>
</glyph>
<glyph name="thorn" format="1">
  <advance width="623"/>
  <unicode hex="00FE"/>
  <outline>
    <contour>
      <point x="399" y="248" type="curve" smooth="yes"/>
      <point x="399" y="134"/>
      <point x="364" y="81"/>
      <point x="311" y="81" type="curve" smooth="yes"/>
      <point x="261" y="81"/>
      <point x="239" y="117"/>
      <point x="202" y="168" type="curve"/>
      <point x="193" y="148" type="line"/>
      <point x="234" y="45"/>
      <point x="283" y="-15"/>
      <point x="384" y="-15" type="curve" smooth="yes"/>
      <point x="495" y="-15"/>
      <point x="601" y="84"/>
      <point x="601" y="248" type="curve" smooth="yes"/>
      <point x="601" y="419"/>
      <point x="514" y="505"/>
      <point x="403" y="505" type="curve" smooth="yes"/>
      <point x="307" y="505"/>
      <point x="240" y="448"/>
      <point x="183" y="333" type="curve"/>
      <point x="192" y="317" type="line"/>
      <point x="209" y="336"/>
      <point x="252" y="406"/>
      <point x="311" y="406" type="curve" smooth="yes"/>
      <point x="364" y="406"/>
      <point x="399" y="362"/>
    </contour>
    <contour>
      <point x="243" y="-150" type="line"/>
      <point x="116" y="-150" type="line"/>
      <point x="27" y="-170" type="line"/>
      <point x="27" y="-222" type="line"/>
      <point x="316" y="-222" type="line"/>
      <point x="316" y="-170" type="line"/>
    </contour>
    <contour>
      <point x="264" y="423" type="line"/>
      <point x="261" y="436" type="line"/>
      <point x="261" y="561" type="line"/>
      <point x="265" y="700" type="line"/>
      <point x="248" y="711" type="line"/>
      <point x="20" y="666" type="line"/>
      <point x="20" y="621" type="line"/>
      <point x="74" y="614" type="line"/>
      <point x="74" y="8" type="line" smooth="yes"/>
      <point x="74" y="-53"/>
      <point x="73" y="-126"/>
      <point x="71" y="-222" type="curve"/>
      <point x="264" y="-222" type="line"/>
      <point x="262" y="-126"/>
      <point x="261" y="-53"/>
      <point x="261" y="8" type="curve" smooth="yes"/>
      <point x="261" y="69" type="line"/>
      <point x="264" y="84" type="line"/>
    </contour>
  </outline>
</glyph>
<glyph name="dcroat" format="1">
  <advance width="605"/>
  <unicode hex="0111"/>
  <outline>
    <contour>
      <point x="205" y="518" type="line"/>
      <point x="581" y="518" type="line"/>
      <point x="581" y="581" type="line"/>
      <point x="205" y="581" type="line"/>
    </contour>
    <contour>
      <point x="224" y="238" type="curve" smooth="yes"/>
      <point x="224" y="341"/>
      <point x="263" y="393"/>
      <point x="318" y="393" type="curve" smooth="yes"/>
      <point x="360" y="393"/>
      <point x="384" y="366"/>
      <point x="416" y="322" type="curve"/>
      <point x="426" y="339" type="line"/>
      <point x="382" y="432"/>
      <point x="343" y="489"/>
      <point x="245" y="489" type="curve" smooth="yes"/>
      <point x="136" y="489"/>
      <point x="22" y="396"/>
      <point x="22" y="236" type="curve" smooth="yes"/>
      <point x="22" y="69"/>
      <point x="110" y="-15"/>
      <point x="220" y="-15" type="curve" smooth="yes"/>
      <point x="313" y="-15"/>
      <point x="379" y="36"/>
      <point x="433" y="158" type="curve"/>
      <point x="420" y="170" type="line"/>
      <point x="394" y="125"/>
      <point x="361" y="84"/>
      <point x="314" y="84" type="curve" smooth="yes"/>
      <point x="260" y="84"/>
      <point x="224" y="140"/>
    </contour>
    <contour>
      <point x="457" y="81" type="line"/>
      <point x="545" y="0" type="line"/>
      <point x="545" y="561" type="line"/>
      <point x="549" y="700" type="line"/>
      <point x="532" y="711" type="line"/>
      <point x="289" y="666" type="line"/>
      <point x="289" y="621" type="line"/>
      <point x="362" y="611" type="line"/>
      <point x="362" y="415" type="line"/>
      <point x="355" y="405" type="line"/>
      <point x="355" y="75" type="line"/>
      <point x="369" y="-10" type="line"/>
      <point x="581" y="0" type="line"/>
      <point x="581" y="51" type="line"/>
    </contour>
  </outline>
</glyph>
<glyph name="Eogonek" format="1">
	<unicode hex="0118"/>
	<advance width="591"/>
	<outline>
		<component base="E"/>
		<component base="ogonekcmb" xOffset="478"/>
		<contour>
			<point name="aboveUC" x="310" y="682" type="move"/>
		</contour>
	</outline>
</glyph>
<glyph name="eogonek" format="1">
  <advance width="526"/>
  <unicode hex="0119"/>
  <outline>
    <contour>
      <point x="348" y="-227" type="curve" smooth="yes"/>
      <point x="405" y="-227"/>
      <point x="458" y="-209"/>
      <point x="492" y="-177" type="curve"/>
      <point x="477" y="-126" type="line"/>
      <point x="463" y="-130"/>
      <point x="448" y="-134"/>
      <point x="422" y="-134" type="curve" smooth="yes"/>
      <point x="378" y="-134"/>
      <point x="350" y="-109"/>
      <point x="350" y="-69" type="curve" smooth="yes"/>
      <point x="350" y="-38"/>
      <point x="363" y="-11"/>
      <point x="403" y="9" type="curve" smooth="yes"/>
      <point x="444" y="29"/>
      <point x="476" y="59"/>
      <point x="499" y="102" type="curve"/>
      <point x="460" y="140" type="line"/>
      <point x="432" y="113"/>
      <point x="396" y="93"/>
      <point x="346" y="93" type="curve" smooth="yes"/>
      <point x="281" y="93"/>
      <point x="222" y="144"/>
      <point x="222" y="264" type="curve" smooth="yes"/>
      <point x="222" y="409"/>
      <point x="246" y="451"/>
      <point x="278" y="451" type="curve" smooth="yes"/>
      <point x="305" y="451"/>
      <point x="330" y="426"/>
      <point x="330" y="357" type="curve" smooth="yes"/>
      <point x="330" y="306"/>
      <point x="317" y="290"/>
      <point x="269" y="290" type="curve" smooth="yes"/>
      <point x="101" y="290" type="line"/>
      <point x="101" y="233" type="line"/>
      <point x="501" y="233" type="line"/>
      <point x="505" y="251"/>
      <point x="506" y="265"/>
      <point x="506" y="286" type="curve" smooth="yes"/>
      <point x="506" y="407"/>
      <point x="434" y="505"/>
      <point x="291" y="505" type="curve" smooth="yes"/>
      <point x="160" y="505"/>
      <point x="22" y="419"/>
      <point x="22" y="247" type="curve" smooth="yes"/>
      <point x="22" y="86"/>
      <point x="133" y="-15"/>
      <point x="282" y="-15" type="curve" smooth="yes"/>
      <point x="296" y="-15"/>
      <point x="310" y="-14"/>
      <point x="323" y="-13" type="curve"/>
      <point x="321" y="-6" type="line"/>
      <point x="263" y="-33"/>
      <point x="230" y="-71"/>
      <point x="230" y="-127" type="curve" smooth="yes"/>
      <point x="230" y="-182"/>
      <point x="271" y="-227"/>
    </contour>
  </outline>
</glyph>
<glyph name="dotlessi" format="1">
  <advance width="324"/>
  <unicode hex="0131"/>
  <outline>
    <contour>
      <point x="267" y="0" type="line"/>
      <point x="265" y="45"/>
      <point x="264" y="148"/>
      <point x="264" y="210" type="curve"/>
      <point x="264" y="345" type="line"/>
      <point x="267" y="494" type="line"/>
      <point x="249" y="505" type="line"/>
      <point x="17" y="436" type="line"/>
      <point x="17" y="395" type="line"/>
      <point x="71" y="386" type="line"/>
      <point x="73" y="346"/>
      <point x="74" y="315"/>
      <point x="74" y="260" type="curve" smooth="yes"/>
      <point x="74" y="210" type="line" smooth="yes"/>
      <point x="74" y="148"/>
      <point x="73" y="45"/>
      <point x="71" y="0" type="curve"/>
    </contour>
    <contour>
      <point x="211" y="71" type="line"/>
      <point x="114" y="71" type="line"/>
      <point x="28" y="51" type="line"/>
      <point x="28" y="0" type="line"/>
      <point x="307" y="0" type="line"/>
      <point x="307" y="51" type="line"/>
    </contour>
  </outline>
</glyph>
<glyph name="oe" format="1">
  <advance width="854"/>
  <unicode hex="0153"/>
  <outline>
    <contour>
      <point x="286" y="450" type="curve" smooth="yes"/>
      <point x="330" y="450"/>
      <point x="350" y="391"/>
      <point x="350" y="246" type="curve" smooth="yes"/>
      <point x="350" y="100"/>
      <point x="330" y="40"/>
      <point x="286" y="40" type="curve" smooth="yes"/>
      <point x="242" y="40"/>
      <point x="222" y="100"/>
      <point x="222" y="246" type="curve" smooth="yes"/>
      <point x="222" y="391"/>
      <point x="242" y="450"/>
    </contour>
    <contour>
      <point x="502" y="118" type="curve"/>
      <point x="397" y="118" type="line"/>
      <point x="443" y="34"/>
      <point x="514" y="-15"/>
      <point x="610" y="-15" type="curve" smooth="yes"/>
      <point x="709" y="-15"/>
      <point x="784" y="21"/>
      <point x="827" y="102" type="curve"/>
      <point x="788" y="140" type="line"/>
      <point x="760" y="113"/>
      <point x="724" y="93"/>
      <point x="674" y="93" type="curve" smooth="yes"/>
      <point x="609" y="93"/>
      <point x="550" y="144"/>
      <point x="550" y="264" type="curve" smooth="yes"/>
      <point x="550" y="409"/>
      <point x="574" y="451"/>
      <point x="606" y="451" type="curve" smooth="yes"/>
      <point x="633" y="451"/>
      <point x="658" y="426"/>
      <point x="658" y="357" type="curve" smooth="yes"/>
      <point x="658" y="306"/>
      <point x="645" y="290"/>
      <point x="597" y="290" type="curve" smooth="yes"/>
      <point x="429" y="290" type="line"/>
      <point x="429" y="233" type="line"/>
      <point x="829" y="233" type="line"/>
      <point x="833" y="251"/>
      <point x="834" y="265"/>
      <point x="834" y="286" type="curve" smooth="yes"/>
      <point x="834" y="407"/>
      <point x="762" y="505"/>
      <point x="619" y="505" type="curve" smooth="yes"/>
      <point x="538" y="505"/>
      <point x="453" y="463"/>
      <point x="408" y="386" type="curve"/>
      <point x="494" y="386" type="line"/>
      <point x="454" y="458"/>
      <point x="378" y="505"/>
      <point x="286" y="505" type="curve" smooth="yes"/>
      <point x="132" y="505"/>
      <point x="22" y="398"/>
      <point x="22" y="249" type="curve" smooth="yes"/>
      <point x="22" y="100"/>
      <point x="114" y="-15"/>
      <point x="286" y="-15" type="curve" smooth="yes"/>
      <point x="393" y="-15"/>
      <point x="460" y="38"/>
    </contour>
  </outline>
</glyph>
<glyph name="uogonek" format="1">
	<unicode hex="0173"/>
	<advance width="617"/>
	<outline>
		<contour>
			<point x="361" y="-127" type="curve" smooth="yes"/>
			<point x="361" y="-182"/>
			<point x="402" y="-227"/>
			<point x="479" y="-227" type="curve" smooth="yes"/>
			<point x="536" y="-227"/>
			<point x="589" y="-209"/>
			<point x="623" y="-177" type="curve"/>
			<point x="608" y="-126" type="line"/>
			<point x="594" y="-130"/>
			<point x="579" y="-134"/>
			<point x="553" y="-134" type="curve" smooth="yes"/>
			<point x="509" y="-134"/>
			<point x="481" y="-109"/>
			<point x="481" y="-69" type="curve" smooth="yes"/>
			<point x="481" y="-38"/>
			<point x="493" y="-13"/>
			<point x="532" y="8" type="curve"/>
			<point x="486" y="8" type="line"/>
			<point x="407" y="-22"/>
			<point x="361" y="-62"/>
		</contour>
		<component base="u"/>
		<contour>
			<point name="aboveLC" x="315" y="520" type="move"/>
		</contour>
	</outline>
</glyph>
<glyph name="Ohorn" format="1">
	<unicode hex="01A0"/>
	<advance width="700"/>
	<outline>
		<component base="O"/>
		<component base="horncmb" xOffset="505" yOffset="165"/>
		<contour>
			<point name="aboveUC" x="340" y="682" type="move"/>
		</contour>
		<contour>
			<point name="belowLC" x="350" y="-22" type="move"/>
		</contour>
	</outline>
</glyph>
<glyph name="verticallinemod" format="1">
	<unicode hex="02C8"/>
	<advance width="160"/>
	<outline>
		<contour>
			<point x="18" y="523" type="line"/>
			<point x="142" y="523" type="line"/>
			<point x="148" y="731" type="line"/>
			<point x="12" y="731" type="line"/>
		</contour>
	</outline>
</glyph>
<glyph name="gravecmb" format="1">
  <advance width="0"/>
  <unicode hex="0300"/>
  <outline>
    <contour>
      <point x="119" y="587" type="line"/>
      <point x="77" y="659" type="line" smooth="yes"/>
      <point x="17" y="763"/>
      <point x="-5" y="784"/>
      <point x="-44" y="784" type="curve" smooth="yes"/>
      <point x="-74" y="784"/>
      <point x="-105" y="760"/>
      <point x="-105" y="721" type="curve" smooth="yes"/>
      <point x="-105" y="685"/>
      <point x="-75" y="655"/>
      <point x="16" y="593" type="curve" smooth="yes"/>
      <point x="76" y="552" type="line"/>
    </contour>
  </outline>
</glyph>
<glyph name="circumflexcmb" format="1">
  <advance width="0"/>
  <unicode hex="0302"/>
  <outline>
    <contour>
      <point x="138" y="554" type="line"/>
      <point x="178" y="592" type="line"/>
      <point x="38" y="767" type="line"/>
      <point x="-38" y="767" type="line"/>
      <point x="-178" y="592" type="line"/>
      <point x="-138" y="554" type="line"/>
      <point x="50" y="689" type="line"/>
      <point x="-50" y="689" type="line"/>
    </contour>
  </outline>
</glyph>
<glyph name="tildecmb" format="1">
  <advance width="0"/>
  <unicode hex="0303"/>
  <outline>
    <contour>
      <point x="56" y="558" type="curve" smooth="yes"/>
      <point x="130" y="558"/>
      <point x="165" y="610"/>
      <point x="165" y="664" type="curve" smooth="yes"/>
      <point x="165" y="681"/>
      <point x="164" y="699"/>
      <point x="159" y="720" type="curve"/>
      <point x="114" y="720" type="line"/>
      <point x="114" y="668"/>
      <point x="101" y="651"/>
      <point x="78" y="651" type="curve" smooth="yes"/>
      <point x="57" y="651"/>
      <point x="46" y="670"/>
      <point x="36" y="684" type="curve" smooth="yes"/>
      <point x="8" y="722"/>
      <point x="-13" y="738"/>
      <point x="-57" y="738" type="curve" smooth="yes"/>
      <point x="-131" y="738"/>
      <point x="-166" y="686"/>
      <point x="-166" y="632" type="curve" smooth="yes"/>
      <point x="-166" y="613"/>
      <point x="-165" y="597"/>
      <point x="-160" y="576" type="curve"/>
      <point x="-115" y="576" type="line"/>
      <point x="-115" y="628"/>
      <point x="-102" y="645"/>
      <point x="-80" y="645" type="curve" smooth="yes"/>
      <point x="-60" y="645"/>
      <point x="-49" y="629"/>
      <point x="-37" y="612" type="curve" smooth="yes"/>
      <point x="-8" y="573"/>
      <point x="14" y="558"/>
    </contour>
  </outline>
</glyph>
<glyph name="macroncmb" format="1">
  <advance width="0"/>
  <unicode hex="0304"/>
  <outline>
    <contour>
      <point x="-171" y="583" type="line"/>
      <point x="171" y="583" type="line"/>
      <point x="171" y="683" type="line"/>
      <point x="-171" y="683" type="line"/>
    </contour>
  </outline>
</glyph>
<glyph name="dieresiscmb" format="1">
  <advance width="0"/>
  <unicode hex="0308"/>
  <outline>
    <contour>
      <point x="120" y="564" type="curve" smooth="yes"/>
      <point x="163" y="564"/>
      <point x="200" y="591"/>
      <point x="200" y="639" type="curve" smooth="yes"/>
      <point x="200" y="687"/>
      <point x="163" y="714"/>
      <point x="120" y="714" type="curve" smooth="yes"/>
      <point x="79" y="714"/>
      <point x="40" y="687"/>
      <point x="40" y="639" type="curve" smooth="yes"/>
      <point x="40" y="591"/>
      <point x="79" y="564"/>
    </contour>
    <contour>
      <point x="-120" y="564" type="curve" smooth="yes"/>
      <point x="-77" y="564"/>
      <point x="-40" y="591"/>
      <point x="-40" y="639" type="curve" smooth="yes"/>
      <point x="-40" y="687"/>
      <point x="-77" y="714"/>
      <point x="-120" y="714" type="curve" smooth="yes"/>
      <point x="-161" y="714"/>
      <point x="-200" y="687"/>
      <point x="-200" y="639" type="curve" smooth="yes"/>
      <point x="-200" y="591"/>
      <point x="-161" y="564"/>
    </contour>
  </outline>
</glyph>
<glyph name="hungarumlautcmb" format="1">
  <advance width="0"/>
  <unicode hex="030B"/>
  <outline>
    <contour>
      <point x="-161" y="576" type="line"/>
      <point x="-114" y="551" type="line"/>
      <point x="-27" y="671" type="line" smooth="yes"/>
      <point x="-2" y="704"/>
      <point x="10" y="726"/>
      <point x="10" y="749" type="curve" smooth="yes"/>
      <point x="10" y="781"/>
      <point x="-9" y="800"/>
      <point x="-39" y="800" type="curve" smooth="yes"/>
      <point x="-75" y="800"/>
      <point x="-101" y="780"/>
      <point x="-119" y="718" type="curve" smooth="yes"/>
    </contour>
    <contour>
      <point x="-10" y="576" type="line"/>
      <point x="37" y="551" type="line"/>
      <point x="124" y="671" type="line" smooth="yes"/>
      <point x="149" y="704"/>
      <point x="161" y="726"/>
      <point x="161" y="749" type="curve" smooth="yes"/>
      <point x="161" y="781"/>
      <point x="142" y="800"/>
      <point x="112" y="800" type="curve" smooth="yes"/>
      <point x="76" y="800"/>
      <point x="50" y="780"/>
      <point x="32" y="718" type="curve" smooth="yes"/>
    </contour>
  </outline>
</glyph>
<glyph name="caroncmb" format="1">
  <advance width="0"/>
  <unicode hex="030C"/>
  <outline>
    <contour>
      <point x="-127" y="779" type="line"/>
      <point x="-171" y="742" type="line"/>
      <point x="-45" y="563" type="line"/>
      <point x="45" y="563" type="line"/>
      <point x="171" y="742" type="line"/>
      <point x="127" y="779" type="line"/>
      <point x="-44" y="640" type="line"/>
      <point x="44" y="640" type="line"/>
    </contour>
  </outline>
</glyph>
<glyph name="commabelowcmb" format="1">
  <advance width="0"/>
  <unicode hex="0326"/>
  <outline>
    <contour>
      <point x="73" y="-121" type="curve" smooth="yes"/>
      <point x="73" y="-102"/>
      <point x="70" y="-85"/>
      <point x="63" y="-66" type="curve"/>
      <point x="34" y="-48"/>
      <point x="17" y="-44"/>
      <point x="-6" y="-44" type="curve" smooth="yes"/>
      <point x="-50" y="-44"/>
      <point x="-84" y="-71"/>
      <point x="-84" y="-108" type="curve" smooth="yes"/>
      <point x="-84" y="-147"/>
      <point x="-56" y="-174"/>
      <point x="-9" y="-193" type="curve"/>
      <point x="10" y="-132" type="line"/>
      <point x="-16" y="-186"/>
      <point x="-45" y="-201"/>
      <point x="-100" y="-224" type="curve"/>
      <point x="-83" y="-268" type="line"/>
      <point x="4" y="-239"/>
      <point x="73" y="-188"/>
    </contour>
  </outline>
</glyph>
<glyph name="tonos" format="1">
	<unicode hex="0384"/>
	<advance width="400"/>
	<outline>
		<component base="tonoscmb" xOffset="190" yOffset="10"/>
		<contour>
			<point name="_aboveLC" x="166" y="520" type="move"/>
		</contour>
	</outline>
</glyph>
<glyph name="dieresistonos" format="1">
	<unicode hex="0385"/>
	<advance width="400"/>
	<outline>
		<component base="dieresistonoscmb" xOffset="200"/>
		<contour>
			<point name="_aboveLC" x="171" y="520" type="move"/>
		</contour>
	</outline>
</glyph>
<glyph name="beta" format="1">
	<unicode hex="03B2"/>
	<advance width="605"/>
	<outline>
		<contour>
			<point x="50" y="-175" type="line"/>
			<point x="70" y="-195" type="line"/>
			<point x="265" y="-160" type="line"/>
			<point x="226" y="106" type="line"/>
			<point x="232" y="133" type="line"/>
			<point x="238" y="572" type="line" smooth="yes"/>
			<point x="239" y="637"/>
			<point x="263" y="666"/>
			<point x="312" y="666" type="curve" smooth="yes"/>
			<point x="364" y="666"/>
			<point x="400" y="635"/>
			<point x="400" y="558" type="curve" smooth="yes"/>
			<point x="400" y="487"/>
			<point x="358" y="453"/>
			<point x="285" y="430" type="curve"/>
			<point x="299" y="338" type="line"/>
			<point x="389" y="338"/>
			<point x="419" y="274"/>
			<point x="419" y="224" type="curve" smooth="yes"/>
			<point x="419" y="161"/>
			<point x="383" y="122"/>
			<point x="328" y="122" type="curve" smooth="yes"/>
			<point x="279" y="122"/>
			<point x="241" y="143"/>
			<point x="210" y="181" type="curve"/>
			<point x="193" y="140" type="line"/>
			<point x="260" y="30"/>
			<point x="312" y="-16"/>
			<point x="396" y="-16" type="curve" smooth="yes"/>
			<point x="516" y="-16"/>
			<point x="579" y="69"/>
			<point x="579" y="177" type="curve" smooth="yes"/>
			<point x="579" y="310"/>
			<point x="504" y="377"/>
			<point x="311" y="378" type="curve"/>
			<point x="311" y="364" type="line"/>
			<point x="483" y="378"/>
			<point x="550" y="467"/>
			<point x="550" y="558" type="curve" smooth="yes"/>
			<point x="550" y="656"/>
			<point x="470" y="721"/>
			<point x="328" y="721" type="curve" smooth="yes"/>
			<point x="166" y="721"/>
			<point x="61" y="624"/>
			<point x="61" y="414" type="curve" smooth="yes"/>
			<point x="61" y="66" type="line"/>
		</contour>
	</outline>
</glyph>
<glyph name="xi" format="1">
	<unicode hex="03BE"/>
	<advance width="484"/>
	<outline>
		<contour>
			<point x="172" y="-214" type="line"/>
			<point x="354" y="-212"/>
			<point x="472" y="-126"/>
			<point x="472" y="-13" type="curve" smooth="yes"/>
			<point x="472" y="40"/>
			<point x="452" y="103"/>
			<point x="356" y="125" type="curve" smooth="yes"/>
			<point x="257" y="148" type="line" smooth="yes"/>
			<point x="220" y="157"/>
			<point x="200" y="176"/>
			<point x="200" y="215" type="curve" smooth="yes"/>
			<point x="200" y="270"/>
			<point x="248" y="299"/>
			<point x="350" y="299" type="curve" smooth="yes"/>
			<point x="368" y="299"/>
			<point x="389" y="299"/>
			<point x="408" y="298" type="curve"/>
			<point x="408" y="430" type="line"/>
			<point x="390" y="427"/>
			<point x="374" y="428"/>
			<point x="358" y="428" type="curve" smooth="yes"/>
			<point x="273" y="428"/>
			<point x="235" y="461"/>
			<point x="235" y="499" type="curve" smooth="yes"/>
			<point x="235" y="564"/>
			<point x="313" y="589"/>
			<point x="448" y="598" type="curve"/>
			<point x="455" y="711" type="line"/>
			<point x="35" y="716" type="line"/>
			<point x="35" y="575" type="line"/>
			<point x="320" y="593" type="line"/>
			<point x="329" y="617" type="line"/>
			<point x="174" y="591"/>
			<point x="76" y="542"/>
			<point x="76" y="448" type="curve" smooth="yes"/>
			<point x="76" y="390"/>
			<point x="116" y="325"/>
			<point x="256" y="320" type="curve"/>
			<point x="255" y="335" type="line"/>
			<point x="94" y="316"/>
			<point x="43" y="247"/>
			<point x="43" y="161" type="curve" smooth="yes"/>
			<point x="43" y="88"/>
			<point x="92" y="30"/>
			<point x="190" y="11" type="curve" smooth="yes"/>
			<point x="277" y="-6" type="line" smooth="yes"/>
			<point x="328" y="-16"/>
			<point x="347" y="-37"/>
			<point x="347" y="-58" type="curve" smooth="yes"/>
			<point x="347" y="-102"/>
			<point x="273" y="-125"/>
			<point x="162" y="-130" type="curve"/>
		</contour>
	</outline>
</glyph>
<glyph name="pi" format="1">
  <advance width="646"/>
  <unicode hex="03C0"/>
  <outline>
    <contour>
      <point x="169" y="-15" type="curve" smooth="yes"/>
      <point x="190" y="-15"/>
      <point x="210" y="-7"/>
      <point x="229" y="15" type="curve"/>
      <point x="259" y="421" type="line"/>
      <point x="218" y="421" type="line"/>
      <point x="170" y="314" type="line" smooth="yes"/>
      <point x="132" y="229"/>
      <point x="87" y="130"/>
      <point x="87" y="70" type="curve" smooth="yes"/>
      <point x="87" y="10"/>
      <point x="120" y="-15"/>
    </contour>
    <contour>
      <point x="468" y="216" type="curve" smooth="yes"/>
      <point x="468" y="421" type="line"/>
      <point x="398" y="421" type="line"/>
      <point x="386" y="195"/>
      <point x="386" y="177"/>
      <point x="386" y="122" type="curve" smooth="yes"/>
      <point x="386" y="16"/>
      <point x="433" y="-15"/>
      <point x="495" y="-15" type="curve" smooth="yes"/>
      <point x="540" y="-15"/>
      <point x="576" y="-4"/>
      <point x="605" y="20" type="curve"/>
      <point x="586" y="157" type="line"/>
      <point x="575" y="154" type="line" smooth="yes"/>
      <point x="551" y="147"/>
      <point x="535" y="145"/>
      <point x="517" y="145" type="curve" smooth="yes"/>
      <point x="487" y="145"/>
      <point x="468" y="161"/>
    </contour>
    <contour>
      <point x="19" y="338" type="line"/>
      <point x="214" y="347" type="line"/>
      <point x="403" y="347" type="line" smooth="yes"/>
      <point x="508" y="347"/>
      <point x="598" y="369"/>
      <point x="625" y="387" type="curve"/>
      <point x="625" y="487" type="line"/>
      <point x="276" y="487" type="line" smooth="yes"/>
      <point x="142" y="487"/>
      <point x="77" y="470"/>
      <point x="19" y="438" type="curve"/>
    </contour>
  </outline>
</glyph>
<glyph name="Nje" format="1">
	<unicode hex="040A"/>
	<advance width="972"/>
	<outline>
		<contour>
			<point x="448" y="310" type="line" smooth="yes"/>
			<point x="448" y="205"/>
			<point x="448" y="101"/>
			<point x="445" y="0" type="curve"/>
			<point x="649" y="0" type="line"/>
			<point x="646" y="103"/>
			<point x="646" y="207"/>
			<point x="646" y="311" type="curve" smooth="yes"/>
			<point x="646" y="367" type="line" smooth="yes"/>
			<point x="646" y="447"/>
			<point x="646" y="551"/>
			<point x="649" y="652" type="curve"/>
			<point x="445" y="652" type="line"/>
			<point x="448" y="549"/>
			<point x="448" y="445"/>
			<point x="448" y="342" type="curve" smooth="yes"/>
		</contour>
		<contour>
			<point x="96" y="310" type="line" smooth="yes"/>
			<point x="96" y="205"/>
			<point x="96" y="101"/>
			<point x="93" y="0" type="curve"/>
			<point x="297" y="0" type="line"/>
			<point x="294" y="103"/>
			<point x="294" y="207"/>
			<point x="294" y="311" type="curve" smooth="yes"/>
			<point x="294" y="342" type="line" smooth="yes"/>
			<point x="294" y="447"/>
			<point x="294" y="551"/>
			<point x="297" y="652" type="curve"/>
			<point x="93" y="652" type="line"/>
			<point x="96" y="549"/>
			<point x="96" y="445"/>
			<point x="96" y="342" type="curve" smooth="yes"/>
		</contour>
		<contour>
			<point x="172" y="578" type="line"/>
			<point x="205" y="578" type="line"/>
			<point x="352" y="593" type="line"/>
			<point x="352" y="652" type="line"/>
			<point x="28" y="652" type="line"/>
			<point x="28" y="593" type="line"/>
		</contour>
		<contour>
			<point x="172" y="74" type="line"/>
			<point x="28" y="59" type="line"/>
			<point x="28" y="0" type="line"/>
			<point x="352" y="0" type="line"/>
			<point x="352" y="59" type="line"/>
			<point x="205" y="74" type="line"/>
		</contour>
		<contour>
			<point x="547" y="329" type="line"/>
			<point x="547" y="392" type="line"/>
			<point x="195" y="392" type="line"/>
			<point x="195" y="329" type="line"/>
		</contour>
		<contour>
			<point x="390" y="0" type="line"/>
			<point x="549" y="0" type="line"/>
			<point x="549" y="74" type="line"/>
			<point x="531" y="74" type="line"/>
			<point x="390" y="59" type="line"/>
		</contour>
		<contour>
			<point x="390" y="593" type="line"/>
			<point x="524" y="578" type="line"/>
			<point x="567" y="578" type="line"/>
			<point x="719" y="593" type="line"/>
			<point x="719" y="652" type="line"/>
			<point x="390" y="652" type="line"/>
		</contour>
		<contour>
			<point x="549" y="0" type="line"/>
			<point x="654" y="0" type="line" smooth="yes"/>
			<point x="907" y="0"/>
			<point x="958" y="111"/>
			<point x="958" y="210" type="curve" smooth="yes"/>
			<point x="958" y="305"/>
			<point x="893" y="399"/>
			<point x="713" y="399" type="curve" smooth="yes"/>
			<point x="656" y="399"/>
			<point x="606" y="396"/>
			<point x="549" y="389" type="curve"/>
			<point x="549" y="328" type="line"/>
			<point x="582" y="334"/>
			<point x="617" y="338"/>
			<point x="654" y="338" type="curve" smooth="yes"/>
			<point x="729" y="338"/>
			<point x="766" y="293"/>
			<point x="766" y="205" type="curve" smooth="yes"/>
			<point x="766" y="110"/>
			<point x="717" y="62"/>
			<point x="652" y="62" type="curve" smooth="yes"/>
			<point x="549" y="62" type="line"/>
		</contour>
	</outline>
</glyph>
<glyph name="Acyr" format="1">
	<unicode hex="0410"/>
	<advance width="680"/>
	<outline>
		<component base="A"/>
		<contour>
			<point name="aboveUC" x="340" y="682" type="move"/>
		</contour>
	</outline>
</glyph>
<glyph name="ocyr" format="1">
	<unicode hex="043E"/>
	<advance width="572"/>
	<outline>
		<component base="o"/>
		<contour>
			<point name="aboveLC" x="286" y="520" type="move"/>
		</contour>
	</outline>
</glyph>
<glyph name="kabashkir" format="1">
	<unicode hex="04A1"/>
	<advance width="736"/>
	<outline>
		<contour>
			<point x="22" y="298" type="line"/>
			<point x="91" y="298" type="line"/>
			<point x="125" y="487" type="line"/>
			<point x="57" y="430" type="line"/>
			<point x="285" y="430" type="line"/>
			<point x="285" y="487" type="line"/>
			<point x="24" y="487" type="line"/>
		</contour>
		<contour>
			<point x="285" y="416" type="line"/>
			<point x="333" y="416" type="line"/>
			<point x="443" y="436" type="line"/>
			<point x="443" y="487" type="line"/>
			<point x="285" y="487" type="line"/>
		</contour>
		<contour>
			<point x="159" y="0" type="line"/>
			<point x="443" y="0" type="line"/>
			<point x="443" y="51" type="line"/>
			<point x="349" y="71" type="line"/>
			<point x="253" y="71" type="line"/>
			<point x="159" y="51" type="line"/>
		</contour>
		<contour>
			<point x="203" y="0" type="curve"/>
			<point x="399" y="0" type="line"/>
			<point x="397" y="45"/>
			<point x="396" y="148"/>
			<point x="396" y="235" type="curve"/>
			<point x="396" y="271" type="line"/>
			<point x="396" y="339"/>
			<point x="397" y="442"/>
			<point x="399" y="487" type="curve"/>
			<point x="203" y="487" type="line"/>
			<point x="205" y="442"/>
			<point x="206" y="339"/>
			<point x="206" y="277" type="curve" smooth="yes"/>
			<point x="206" y="210" type="line" smooth="yes"/>
			<point x="206" y="148"/>
			<point x="205" y="45"/>
		</contour>
		<contour>
			<point x="733" y="50" type="line"/>
			<point x="572" y="76" type="line"/>
			<point x="697" y="3" type="line"/>
			<point x="672" y="125" type="line" smooth="yes"/>
			<point x="655" y="210"/>
			<point x="596" y="250"/>
			<point x="443" y="259" type="curve"/>
			<point x="458" y="238" type="line"/>
			<point x="507" y="255"/>
			<point x="530" y="275"/>
			<point x="554" y="332" type="curve" smooth="yes"/>
			<point x="565" y="358"/>
			<point x="578" y="386"/>
			<point x="601" y="424" type="curve"/>
			<point x="514" y="372" type="line"/>
			<point x="543" y="350"/>
			<point x="578" y="339"/>
			<point x="618" y="339" type="curve" smooth="yes"/>
			<point x="663" y="339"/>
			<point x="706" y="369"/>
			<point x="706" y="420" type="curve" smooth="yes"/>
			<point x="706" y="460"/>
			<point x="681" y="492"/>
			<point x="629" y="504" type="curve"/>
			<point x="565" y="485"/>
			<point x="534" y="454"/>
			<point x="503" y="357" type="curve" smooth="yes"/>
			<point x="480" y="288"/>
			<point x="466" y="278"/>
			<point x="427" y="278" type="curve" smooth="yes"/>
			<point x="301" y="278" type="line"/>
			<point x="301" y="221" type="line"/>
			<point x="417" y="221" type="line" smooth="yes"/>
			<point x="465" y="221"/>
			<point x="486" y="205"/>
			<point x="492" y="169" type="curve" smooth="yes"/>
			<point x="506" y="80" type="line" smooth="yes"/>
			<point x="517" y="10"/>
			<point x="566" y="-12"/>
			<point x="633" y="-12" type="curve" smooth="yes"/>
			<point x="674" y="-12"/>
			<point x="707" y="-5"/>
			<point x="733" y="0" type="curve"/>
		</contour>
	</outline>
</glyph>
<glyph name="figuredash" format="1">
  <advance width="560"/>
  <unicode hex="2012"/>
  <outline>
    <contour>
      <point x="40" y="205" type="line"/>
      <point x="520" y="205" type="line"/>
      <point x="520" y="305" type="line"/>
      <point x="40" y="305" type="line"/>
    </contour>
  </outline>
</glyph>
<glyph name="emdash" format="1">
  <advance width="850"/>
  <unicode hex="2014"/>
  <outline>
    <contour>
      <point x="40" y="205" type="line"/>
      <point x="810" y="205" type="line"/>
      <point x="810" y="305" type="line"/>
      <point x="40" y="305" type="line"/>
    </contour>
  </outline>
</glyph>
<glyph name="prime" format="1">
  <advance width="259"/>
  <unicode hex="2032"/>
  <outline>
    <contour>
      <point x="143" y="725" type="curve" smooth="yes"/>
      <point x="113" y="725"/>
      <point x="91" y="718"/>
      <point x="66" y="701" type="curve"/>
      <point x="45" y="381" type="line"/>
      <point x="120" y="371" type="line"/>
      <point x="171" y="493" type="line" smooth="yes"/>
      <point x="196" y="552"/>
      <point x="222" y="614"/>
      <point x="222" y="650" type="curve" smooth="yes"/>
      <point x="222" y="699"/>
      <point x="192" y="725"/>
    </contour>
  </outline>
</glyph>
<glyph name="dong" format="1">
	<unicode hex="20AB"/>
	<advance width="560"/>
	<outline>
		<contour>
			<point x="45" y="0" type="line"/>
			<point x="515" y="0" type="line"/>
			<point x="515" y="60" type="line"/>
			<point x="45" y="60" type="line"/>
		</contour>
		<contour>
			<point x="209" y="92" type="curve" smooth="yes"/>
			<point x="250" y="92"/>
			<point x="291" y="107"/>
			<point x="339" y="161" type="curve"/>
			<point x="340" y="205" type="line"/>
			<point x="304" y="184"/>
			<point x="293" y="181"/>
			<point x="281" y="181" type="curve" smooth="yes"/>
			<point x="244" y="181"/>
			<point x="219" y="228"/>
			<point x="219" y="299" type="curve" smooth="yes"/>
			<point x="219" y="370"/>
			<point x="246" y="408"/>
			<point x="284" y="408" type="curve" smooth="yes"/>
			<point x="295" y="408"/>
			<point x="305" y="406"/>
			<point x="340" y="386" type="curve"/>
			<point x="341" y="436" type="line"/>
			<point x="303" y="482"/>
			<point x="268" y="495"/>
			<point x="230" y="495" type="curve" smooth="yes"/>
			<point x="139" y="495"/>
			<point x="48" y="421"/>
			<point x="48" y="293" type="curve" smooth="yes"/>
			<point x="48" y="159"/>
			<point x="118" y="92"/>
		</contour>
		<contour>
			<point x="125" y="510" type="line"/>
			<point x="530" y="510" type="line"/>
			<point x="530" y="570" type="line"/>
			<point x="125" y="570" type="line"/>
		</contour>
		<contour>
			<point x="325" y="96" type="line"/>
			<point x="515" y="104" type="line"/>
			<point x="515" y="155" type="line"/>
			<point x="476" y="163" type="line"/>
			<point x="476" y="540" type="line"/>
			<point x="479" y="663" type="line"/>
			<point x="466" y="672" type="line"/>
			<point x="258" y="647" type="line"/>
			<point x="258" y="601" type="line"/>
			<point x="320" y="597" type="line"/>
			<point x="320" y="428" type="line"/>
			<point x="314" y="418" type="line"/>
			<point x="314" y="169" type="line"/>
		</contour>
	</outline>
</glyph>
<glyph name="Euro" format="1">
  <advance width="560"/>
  <unicode hex="20AC"/>
  <outline>
    <contour>
      <point x="351" y="-15" type="curve" smooth="yes"/>
      <point x="463" y="-15"/>
      <point x="546" y="37"/>
      <point x="546" y="121" type="curve"/>
      <point x="541" y="162"/>
      <point x="512" y="177"/>
      <point x="486" y="177" type="curve" smooth="yes"/>
      <point x="447" y="177"/>
      <point x="410" y="163"/>
      <point x="399" y="88" type="curve" smooth="yes"/>
      <point x="389" y="21" type="line"/>
      <point x="484" y="68" type="line"/>
      <point x="439" y="47"/>
      <point x="418" y="40"/>
      <point x="382" y="40" type="curve" smooth="yes"/>
      <point x="302" y="40"/>
      <point x="233" y="130"/>
      <point x="233" y="314" type="curve" smooth="yes"/>
      <point x="233" y="502"/>
      <point x="295" y="585"/>
      <point x="359" y="585" type="curve" smooth="yes"/>
      <point x="401" y="585"/>
      <point x="428" y="581"/>
      <point x="480" y="557" type="curve"/>
      <point x="385" y="604" type="line"/>
      <point x="395" y="537" type="line" smooth="yes"/>
      <point x="406" y="462"/>
      <point x="443" y="448"/>
      <point x="482" y="448" type="curve" smooth="yes"/>
      <point x="508" y="448"/>
      <point x="537" y="463"/>
      <point x="542" y="504" type="curve"/>
      <point x="542" y="588"/>
      <point x="463" y="640"/>
      <point x="357" y="640" type="curve" smooth="yes"/>
      <point x="199" y="639"/>
      <point x="66" y="550"/>
      <point x="66" y="314" type="curve" smooth="yes"/>
      <point x="66" y="78"/>
      <point x="184" y="-15"/>
    </contour>
    <contour>
      <point x="10" y="351" type="line"/>
      <point x="425" y="351" type="line"/>
      <point x="425" y="411" type="line"/>
      <point x="10" y="411" type="line"/>
    </contour>
    <contour>
      <point x="10" y="225" type="line"/>
      <point x="425" y="225" type="line"/>
      <point x="425" y="285" type="line"/>
      <point x="10" y="285" type="line"/>
    </contour>
  </outline>
</glyph>
<glyph name="hryvnia" format="1">
	<unicode hex="20B4"/>
	<advance width="560"/>
	<outline>
		<contour>
			<point x="33" y="225" type="line"/>
			<point x="538" y="225" type="line"/>
			<point x="538" y="285" type="line"/>
			<point x="33" y="285" type="line"/>
		</contour>
		<contour>
			<point x="33" y="351" type="line"/>
			<point x="538" y="351" type="line"/>
			<point x="538" y="411" type="line"/>
			<point x="33" y="411" type="line"/>
		</contour>
		<contour>
			<point x="91" y="143" type="curve" smooth="yes"/>
			<point x="91" y="50"/>
			<point x="168" y="-15"/>
			<point x="301" y="-15" type="curve" smooth="yes"/>
			<point x="437" y="-15"/>
			<point x="513" y="38"/>
			<point x="513" y="124" type="curve"/>
			<point x="499" y="162"/>
			<point x="472" y="176"/>
			<point x="446" y="176" type="curve" smooth="yes"/>
			<point x="403" y="176"/>
			<point x="381" y="156"/>
			<point x="376" y="104" type="curve" smooth="yes"/>
			<point x="368" y="19" type="line"/>
			<point x="468" y="74" type="line"/>
			<point x="419" y="50"/>
			<point x="391" y="39"/>
			<point x="337" y="39" type="curve" smooth="yes"/>
			<point x="285" y="39"/>
			<point x="246" y="75"/>
			<point x="246" y="135" type="curve" smooth="yes"/>
			<point x="246" y="183"/>
			<point x="262" y="207"/>
			<point x="303" y="245" type="curve" smooth="yes"/>
			<point x="439" y="371" type="line" smooth="yes"/>
			<point x="484" y="413"/>
			<point x="491" y="451"/>
			<point x="491" y="490" type="curve" smooth="yes"/>
			<point x="491" y="575"/>
			<point x="431" y="640"/>
			<point x="288" y="640" type="curve" smooth="yes"/>
			<point x="169" y="640"/>
			<point x="86" y="588"/>
			<point x="86" y="504" type="curve"/>
			<point x="91" y="463"/>
			<point x="120" y="448"/>
			<point x="146" y="448" type="curve" smooth="yes"/>
			<point x="185" y="448"/>
			<point x="222" y="462"/>
			<point x="233" y="537" type="curve" smooth="yes"/>
			<point x="243" y="604" type="line"/>
			<point x="140" y="557" type="line"/>
			<point x="192" y="581"/>
			<point x="217" y="585"/>
			<point x="258" y="585" type="curve" smooth="yes"/>
			<point x="308" y="585"/>
			<point x="345" y="557"/>
			<point x="345" y="507" type="curve" smooth="yes"/>
			<point x="345" y="471"/>
			<point x="325" y="443"/>
			<point x="268" y="390" type="curve" smooth="yes"/>
			<point x="140" y="271" type="line" smooth="yes"/>
			<point x="96" y="230"/>
			<point x="91" y="187"/>
		</contour>
	</outline>
</glyph>
<glyph name="rupeeindian" format="1">
  <advance width="560"/>
  <unicode hex="20B9"/>
  <outline>
    <contour>
      <point x="59" y="434" type="line"/>
      <point x="481" y="434" type="line"/>
      <point x="481" y="494" type="line"/>
      <point x="59" y="494" type="line"/>
    </contour>
    <contour>
      <point x="59" y="311" type="line"/>
      <point x="59" y="251" type="line"/>
      <point x="126" y="251" type="line" smooth="yes"/>
      <point x="181" y="251"/>
      <point x="204" y="223"/>
      <point x="212" y="170" type="curve" smooth="yes"/>
      <point x="223" y="93" type="line" smooth="yes"/>
      <point x="236" y="2"/>
      <point x="304" y="-15"/>
      <point x="371" y="-15" type="curve" smooth="yes"/>
      <point x="414" y="-15"/>
      <point x="449" y="-9"/>
      <point x="481" y="0" type="curve"/>
      <point x="481" y="57" type="line"/>
      <point x="342" y="75" type="line"/>
      <point x="420" y="23" type="line"/>
      <point x="399" y="167" type="line" smooth="yes"/>
      <point x="391" y="224"/>
      <point x="353" y="281"/>
      <point x="241" y="294" type="curve"/>
      <point x="251" y="280" type="line"/>
      <point x="365" y="308"/>
      <point x="402" y="379"/>
      <point x="402" y="439" type="curve" smooth="yes"/>
      <point x="402" y="501"/>
      <point x="385" y="537"/>
      <point x="334" y="573" type="curve"/>
      <point x="334" y="560" type="line"/>
      <point x="481" y="560" type="line"/>
      <point x="481" y="620" type="line"/>
      <point x="59" y="620" type="line"/>
      <point x="59" y="560" type="line"/>
      <point x="116" y="560" type="line" smooth="yes"/>
      <point x="196" y="560"/>
      <point x="234" y="521"/>
      <point x="234" y="439" type="curve" smooth="yes"/>
      <point x="234" y="380"/>
      <point x="205" y="311"/>
      <point x="104" y="311" type="curve" smooth="yes"/>
    </contour>
  </outline>
</glyph>
<glyph name="liraturkish" format="1">
  <advance width="560"/>
  <unicode hex="20BA"/>
  <outline>
    <contour>
      <point x="408" y="506" type="line"/>
      <point x="204" y="403" type="line"/>
      <point x="204" y="333" type="line"/>
      <point x="408" y="436" type="line"/>
    </contour>
    <contour>
      <point x="204" y="410" type="line"/>
      <point x="20" y="318" type="line"/>
      <point x="20" y="248" type="line"/>
      <point x="204" y="340" type="line"/>
    </contour>
    <contour>
      <point x="408" y="376" type="line"/>
      <point x="202" y="273" type="line"/>
      <point x="202" y="203" type="line"/>
      <point x="408" y="306" type="line"/>
    </contour>
    <contour>
      <point x="202" y="280" type="line"/>
      <point x="20" y="188" type="line"/>
      <point x="20" y="118" type="line"/>
      <point x="202" y="210" type="line"/>
    </contour>
    <contour>
      <point x="183" y="548" type="line"/>
      <point x="215" y="548" type="line"/>
      <point x="377" y="562" type="line"/>
      <point x="377" y="620" type="line"/>
      <point x="24" y="620" type="line"/>
      <point x="24" y="562" type="line"/>
    </contour>
    <contour>
      <point x="277" y="-15" type="curve" smooth="yes"/>
      <point x="449" y="-15"/>
      <point x="557" y="108"/>
      <point x="557" y="245" type="curve"/>
      <point x="551" y="265"/>
      <point x="529" y="287"/>
      <point x="497" y="287" type="curve" smooth="yes"/>
      <point x="468" y="287"/>
      <point x="430" y="267"/>
      <point x="430" y="221" type="curve" smooth="yes"/>
      <point x="430" y="205"/>
      <point x="434" y="187"/>
      <point x="440" y="166" type="curve" smooth="yes"/>
      <point x="466" y="76" type="line"/>
      <point x="536" y="175" type="line"/>
      <point x="481" y="175" type="line"/>
      <point x="441" y="86"/>
      <point x="373" y="45"/>
      <point x="302" y="45" type="curve" smooth="yes"/>
      <point x="276" y="45"/>
      <point x="234" y="50"/>
      <point x="196" y="61" type="curve"/>
      <point x="294" y="2" type="line"/>
      <point x="294" y="413" type="line" smooth="yes"/>
      <point x="294" y="482"/>
      <point x="295" y="553"/>
      <point x="297" y="620" type="curve"/>
      <point x="99" y="620" type="line"/>
      <point x="101" y="553"/>
      <point x="102" y="482"/>
      <point x="102" y="353" type="curve" smooth="yes"/>
      <point x="102" y="191" type="line" smooth="yes"/>
      <point x="102" y="140"/>
      <point x="101" y="69"/>
      <point x="99" y="0" type="curve"/>
      <point x="141" y="-9"/>
      <point x="198" y="-15"/>
    </contour>
  </outline>
</glyph>
<glyph name="Omega.math" format="1">
  <advance width="814"/>
  <unicode hex="2126"/>
  <outline>
    <contour>
      <point x="114" y="250" type="line"/>
      <point x="20" y="250" type="line"/>
      <point x="33" y="0" type="line"/>
      <point x="372" y="0" type="line"/>
      <point x="372" y="60" type="line"/>
      <point x="329" y="138" type="line"/>
      <point x="76" y="138" type="line"/>
      <point x="160" y="0" type="line"/>
    </contour>
    <contour>
      <point x="700" y="250" type="line"/>
      <point x="654" y="0" type="line"/>
      <point x="738" y="138" type="line"/>
      <point x="485" y="138" type="line"/>
      <point x="442" y="60" type="line"/>
      <point x="442" y="0" type="line"/>
      <point x="781" y="0" type="line"/>
      <point x="794" y="250" type="line"/>
    </contour>
    <contour>
      <point x="407" y="612" type="curve" smooth="yes"/>
      <point x="522" y="612"/>
      <point x="541" y="517"/>
      <point x="541" y="437" type="curve" smooth="yes"/>
      <point x="541" y="328"/>
      <point x="496" y="190"/>
      <point x="442" y="120" type="curve"/>
      <point x="442" y="0" type="line"/>
      <point x="547" y="0" type="line"/>
      <point x="547" y="142" type="line"/>
      <point x="638" y="191"/>
      <point x="736" y="304"/>
      <point x="736" y="424" type="curve" smooth="yes"/>
      <point x="736" y="549"/>
      <point x="639" y="672"/>
      <point x="407" y="672" type="curve" smooth="yes"/>
      <point x="175" y="672"/>
      <point x="78" y="549"/>
      <point x="78" y="424" type="curve" smooth="yes"/>
      <point x="78" y="304"/>
      <point x="176" y="191"/>
      <point x="267" y="142" type="curve"/>
      <point x="267" y="0" type="line"/>
      <point x="372" y="0" type="line"/>
      <point x="372" y="120" type="line"/>
      <point x="318" y="190"/>
      <point x="273" y="328"/>
      <point x="273" y="437" type="curve" smooth="yes"/>
      <point x="273" y="517"/>
      <point x="292" y="612"/>
    </contour>
  </outline>
</glyph>
<glyph name="arrowleft" format="1">
  <advance width="650"/>
  <unicode hex="2190"/>
  <outline>
    <contour>
      <point x="336" y="609" type="line"/>
      <point x="10" y="326" type="line"/>
      <point x="10" y="244" type="line"/>
      <point x="336" y="-39" type="line"/>
      <point x="376" y="1" type="line"/>
      <point x="146" y="252" type="line"/>
      <point x="584" y="225" type="line"/>
      <point x="640" y="225" type="line"/>
      <point x="640" y="345" type="line"/>
      <point x="584" y="345" type="line"/>
      <point x="146" y="318" type="line"/>
      <point x="376" y="569" type="line"/>
    </contour>
  </outline>
</glyph>
<glyph name="arrowup" format="1">
  <advance width="650"/>
  <unicode hex="2191"/>
  <outline>
    <contour>
      <point x="649" y="274" type="line"/>
      <point x="366" y="600" type="line"/>
      <point x="284" y="600" type="line"/>
      <point x="1" y="274" type="line"/>
      <point x="41" y="234" type="line"/>
      <point x="292" y="464" type="line"/>
      <point x="265" y="26" type="line"/>
      <point x="265" y="-30" type="line"/>
      <point x="385" y="-30" type="line"/>
      <point x="385" y="26" type="line"/>
      <point x="358" y="464" type="line"/>
      <point x="609" y="234" type="line"/>
    </contour>
  </outline>
</glyph>
<glyph name="arrowright" format="1">
  <advance width="650"/>
  <unicode hex="2192"/>
  <outline>
    <contour>
      <point x="314" y="-39" type="line"/>
      <point x="640" y="244" type="line"/>
      <point x="640" y="326" type="line"/>
      <point x="314" y="609" type="line"/>
      <point x="274" y="569" type="line"/>
      <point x="504" y="318" type="line"/>
      <point x="66" y="345" type="line"/>
      <point x="10" y="345" type="line"/>
      <point x="10" y="225" type="line"/>
      <point x="66" y="225" type="line"/>
      <point x="504" y="252" type="line"/>
      <point x="274" y="1" type="line"/>
    </contour>
  </outline>
</glyph>
<glyph name="arrowdown" format="1">
  <advance width="650"/>
  <unicode hex="2193"/>
  <outline>
    <contour>
      <point x="1" y="296" type="line"/>
      <point x="284" y="-30" type="line"/>
      <point x="366" y="-30" type="line"/>
      <point x="649" y="296" type="line"/>
      <point x="609" y="336" type="line"/>
      <point x="358" y="106" type="line"/>
      <point x="385" y="544" type="line"/>
      <point x="385" y="600" type="line"/>
      <point x="265" y="600" type="line"/>
      <point x="265" y="544" type="line"/>
      <point x="292" y="106" type="line"/>
      <point x="41" y="336" type="line"/>
    </contour>
  </outline>
</glyph>
<glyph name="arrowupleft" format="1">
  <advance width="650"/>
  <unicode hex="2196"/>
  <outline>
    <contour>
      <point x="562" y="506" type="line"/>
      <point x="131" y="537" type="line"/>
      <point x="73" y="479" type="line"/>
      <point x="104" y="48" type="line"/>
      <point x="160" y="48" type="line"/>
      <point x="175" y="388" type="line"/>
      <point x="466" y="59" type="line"/>
      <point x="505" y="20" type="line"/>
      <point x="590" y="105" type="line"/>
      <point x="551" y="144" type="line"/>
      <point x="222" y="435" type="line"/>
      <point x="562" y="450" type="line"/>
    </contour>
  </outline>
</glyph>
<glyph name="arrowupright" format="1">
  <advance width="650"/>
  <unicode hex="2197"/>
  <outline>
    <contour>
      <point x="546" y="48" type="line"/>
      <point x="577" y="479" type="line"/>
      <point x="519" y="537" type="line"/>
      <point x="88" y="506" type="line"/>
      <point x="88" y="450" type="line"/>
      <point x="428" y="435" type="line"/>
      <point x="99" y="144" type="line"/>
      <point x="60" y="105" type="line"/>
      <point x="145" y="20" type="line"/>
      <point x="184" y="59" type="line"/>
      <point x="475" y="388" type="line"/>
      <point x="490" y="48" type="line"/>
    </contour>
  </outline>
</glyph>
<glyph name="arrowdownright" format="1">
  <advance width="650"/>
  <unicode hex="2198"/>
  <outline>
    <contour>
      <point x="88" y="64" type="line"/>
      <point x="519" y="33" type="line"/>
      <point x="577" y="91" type="line"/>
      <point x="546" y="522" type="line"/>
      <point x="490" y="522" type="line"/>
      <point x="475" y="182" type="line"/>
      <point x="184" y="511" type="line"/>
      <point x="145" y="550" type="line"/>
      <point x="60" y="465" type="line"/>
      <point x="99" y="426" type="line"/>
      <point x="428" y="135" type="line"/>
      <point x="88" y="120" type="line"/>
    </contour>
  </outline>
</glyph>
<glyph name="arrowdownleft" format="1">
  <advance width="650"/>
  <unicode hex="2199"/>
  <outline>
    <contour>
      <point x="104" y="522" type="line"/>
      <point x="73" y="91" type="line"/>
      <point x="131" y="33" type="line"/>
      <point x="562" y="64" type="line"/>
      <point x="562" y="120" type="line"/>
      <point x="222" y="135" type="line"/>
      <point x="551" y="426" type="line"/>
      <point x="590" y="465" type="line"/>
      <point x="505" y="550" type="line"/>
      <point x="466" y="511" type="line"/>
      <point x="175" y="182" type="line"/>
      <point x="160" y="522" type="line"/>
    </contour>
  </outline>
</glyph>
<glyph name="partialdiff" format="1">
	<unicode hex="2202"/>
	<advance width="576"/>
	<outline>
		<contour>
			<point x="30" y="192" type="curve" smooth="yes"/>
			<point x="30" y="59"/>
			<point x="97" y="-16"/>
			<point x="231" y="-16" type="curve" smooth="yes"/>
			<point x="424" y="-16"/>
			<point x="546" y="117"/>
			<point x="546" y="360" type="curve" smooth="yes"/>
			<point x="546" y="570"/>
			<point x="424" y="640"/>
			<point x="306" y="640" type="curve" smooth="yes"/>
			<point x="216" y="640"/>
			<point x="146" y="607"/>
			<point x="103" y="552" type="curve"/>
			<point x="139" y="507" type="line"/>
			<point x="186" y="552"/>
			<point x="233" y="573"/>
			<point x="274" y="573" type="curve" smooth="yes"/>
			<point x="335" y="573"/>
			<point x="366" y="530"/>
			<point x="366" y="397" type="curve" smooth="yes"/>
			<point x="366" y="104"/>
			<point x="281" y="39"/>
			<point x="249" y="39" type="curve" smooth="yes"/>
			<point x="211" y="39"/>
			<point x="196" y="77"/>
			<point x="196" y="150" type="curve" smooth="yes"/>
			<point x="196" y="270"/>
			<point x="261" y="341"/>
			<point x="317" y="341" type="curve" smooth="yes"/>
			<point x="353" y="341"/>
			<point x="378" y="318"/>
			<point x="397" y="288" type="curve"/>
			<point x="413" y="340" type="line"/>
			<point x="384" y="392"/>
			<point x="344" y="415"/>
			<point x="279" y="415" type="curve" smooth="yes"/>
			<point x="141" y="415"/>
			<point x="30" y="332"/>
		</contour>
	</outline>
</glyph>
<glyph name="Delta.math" format="1">
  <advance width="607"/>
  <unicode hex="2206"/>
  <outline>
    <contour>
      <point x="490" y="0" type="line"/>
      <point x="490" y="63" type="line"/>
      <point x="53" y="63" type="line"/>
      <point x="53" y="0" type="line"/>
    </contour>
    <contour>
      <point x="266" y="583" type="line"/>
      <point x="223" y="513" type="line"/>
      <point x="392" y="0" type="line"/>
      <point x="578" y="0" type="line"/>
      <point x="578" y="45" type="line"/>
      <point x="360" y="652" type="line"/>
      <point x="240" y="652" type="line"/>
      <point x="30" y="45" type="line"/>
      <point x="30" y="0" type="line"/>
      <point x="80" y="0" type="line"/>
    </contour>
  </outline>
</glyph>
<glyph name="eighthnote" format="1">
  <advance width="570"/>
  <unicode hex="266A"/>
  <outline>
    <contour>
      <point x="20" y="88" type="curve" smooth="yes"/>
      <point x="20" y="15"/>
      <point x="87" y="-15"/>
      <point x="157" y="-15" type="curve" smooth="yes"/>
      <point x="281" y="-15"/>
      <point x="346" y="68"/>
      <point x="346" y="206" type="curve" smooth="yes"/>
      <point x="346" y="629" type="line"/>
      <point x="323" y="493" type="line"/>
      <point x="359" y="461"/>
      <point x="381" y="441"/>
      <point x="417" y="413" type="curve" smooth="yes"/>
      <point x="449" y="388"/>
      <point x="473" y="361"/>
      <point x="473" y="316" type="curve" smooth="yes"/>
      <point x="473" y="295"/>
      <point x="468" y="271"/>
      <point x="454" y="241" type="curve"/>
      <point x="494" y="217" type="line"/>
      <point x="540" y="276"/>
      <point x="560" y="337"/>
      <point x="560" y="393" type="curve" smooth="yes"/>
      <point x="560" y="464"/>
      <point x="518" y="521"/>
      <point x="436" y="580" type="curve" smooth="yes"/>
      <point x="382" y="619"/>
      <point x="351" y="668"/>
      <point x="336" y="731" type="curve"/>
      <point x="276" y="731" type="line"/>
      <point x="276" y="94" type="line"/>
      <point x="318" y="184" type="line"/>
      <point x="290" y="206"/>
      <point x="249" y="217"/>
      <point x="197" y="217" type="curve" smooth="yes"/>
      <point x="92" y="217"/>
      <point x="20" y="164"/>
    </contour>
  </outline>
</glyph>
<glyph name="check" format="1">
  <advance width="660"/>
  <unicode hex="2713"/>
  <outline>
    <contour>
      <point x="63" y="335" type="line"/>
      <point x="136" y="226"/>
      <point x="197" y="113"/>
      <point x="249" y="0" type="curve"/>
      <point x="344" y="0" type="line"/>
      <point x="403" y="267"/>
      <point x="501" y="525"/>
      <point x="627" y="773" type="curve"/>
      <point x="527" y="819" type="line"/>
      <point x="401" y="581"/>
      <point x="308" y="337"/>
      <point x="257" y="88" type="curve"/>
      <point x="327" y="82" type="line"/>
      <point x="289" y="193"/>
      <point x="234" y="301"/>
      <point x="164" y="406" type="curve"/>
    </contour>
  </outline>
</glyph>
<glyph name="J.sc" format="1">
	<advance width="390"/>
	<outline>
		<contour>
			<point x="107" y="536" type="line"/>
			<point x="110" y="301"/>
			<point x="114" y="131"/>
			<point x="114" y="39" type="curve" smooth="yes"/>
			<point x="114" y="-26"/>
			<point x="109" y="-71"/>
			<point x="98" y="-95" type="curve"/>
			<point x="98" y="-105" type="line"/>
			<point x="105" y="-107" type="line"/>
			<point x="115" y="-109" type="line"/>
			<point x="86" y="-74" type="line" smooth="yes"/>
			<point x="56" y="-39"/>
			<point x="29" y="-21"/>
			<point x="-7" y="-21" type="curve" smooth="yes"/>
			<point x="-51" y="-21"/>
			<point x="-86" y="-49"/>
			<point x="-86" y="-89" type="curve"/>
			<point x="-60" y="-126"/>
			<point x="-20" y="-145"/>
			<point x="36" y="-145" type="curve" smooth="yes"/>
			<point x="122" y="-145"/>
			<point x="195" y="-106"/>
			<point x="237" y="-39" type="curve" smooth="yes"/>
			<point x="273" y="18"/>
			<point x="289" y="102"/>
			<point x="289" y="222" type="curve" smooth="yes"/>
			<point x="289" y="292" type="line" smooth="yes"/>
			<point x="289" y="374"/>
			<point x="289" y="456"/>
			<point x="291" y="536" type="curve"/>
		</contour>
		<contour>
			<point x="35" y="481" type="line"/>
			<point x="169" y="469" type="line"/>
			<point x="211" y="469" type="line"/>
			<point x="355" y="481" type="line"/>
			<point x="355" y="536" type="line"/>
			<point x="35" y="536" type="line"/>
		</contour>
		<contour>
			<point name="aboveUC" x="194" y="560" type="move"/>
		</contour>
		<contour>
			<point name="belowLC" x="114" y="-139" type="move"/>
		</contour>
	</outline>
</glyph>
<glyph name="W.sc" format="1">
	<advance width="911"/>
	<outline>
		<contour>
			<point x="834" y="469" type="line"/>
			<point x="915" y="481" type="line"/>
			<point x="915" y="536" type="line"/>
			<point x="726" y="536" type="line"/>
			<point x="726" y="481" type="line"/>
			<point x="808" y="469" type="line"/>
		</contour>
		<contour>
			<point x="545" y="469" type="line"/>
			<point x="659" y="481" type="line"/>
			<point x="659" y="536" type="line"/>
			<point x="374" y="536" type="line"/>
			<point x="374" y="481" type="line"/>
			<point x="487" y="469" type="line"/>
		</contour>
		<contour>
			<point x="176" y="469" type="line"/>
			<point x="306" y="481" type="line"/>
			<point x="306" y="536" type="line"/>
			<point x="8" y="536" type="line"/>
			<point x="8" y="481" type="line"/>
			<point x="141" y="469" type="line"/>
		</contour>
		<contour>
			<point x="276" y="3" type="line"/>
			<point x="346" y="120" type="line"/>
			<point x="229" y="536" type="line"/>
			<point x="39" y="536" type="line"/>
			<point x="221" y="0" type="line"/>
			<point x="333" y="0" type="line"/>
			<point x="469" y="403" type="line"/>
			<point x="434" y="401" type="line"/>
			<point x="568" y="0" type="line"/>
			<point x="680" y="0" type="line"/>
			<point x="866" y="536" type="line"/>
			<point x="801" y="536" type="line"/>
			<point x="624" y="3" type="line"/>
			<point x="692" y="120" type="line"/>
			<point x="565" y="536" type="line"/>
			<point x="448" y="536" type="line"/>
		</contour>
		<contour>
			<point name="aboveUC" x="510" y="560" type="move"/>
		</contour>
		<contour>
			<point name="belowLC" x="456" y="-18" type="move"/>
		</contour>
	</outline>
</glyph>
<glyph name="brevecmb.cap" format="1">
  <advance width="0"/>
  <outline>
    <contour>
      <point x="0" y="708" type="curve" smooth="yes"/>
      <point x="107" y="708"/>
      <point x="158" y="768"/>
      <point x="173" y="845" type="curve"/>
      <point x="121" y="866" type="line"/>
      <point x="96" y="821"/>
      <point x="59" y="797"/>
      <point x="0" y="797" type="curve" smooth="yes"/>
      <point x="-59" y="797"/>
      <point x="-96" y="821"/>
      <point x="-121" y="866" type="curve"/>
      <point x="-173" y="845" type="line"/>
      <point x="-158" y="768"/>
      <point x="-107" y="708"/>
    </contour>
  </outline>
</glyph>
<glyph name="brevecmb.cyrcap" format="1">
	<outline>
		<contour>
			<point x="0" y="698" type="curve" smooth="yes"/>
			<point x="104" y="698"/>
			<point x="194" y="742"/>
			<point x="194" y="844" type="curve"/>
			<point x="182" y="872"/>
			<point x="164" y="886"/>
			<point x="135" y="886" type="curve" smooth="yes"/>
			<point x="104" y="886"/>
			<point x="70" y="866"/>
			<point x="70" y="789" type="curve" smooth="yes"/>
			<point x="70" y="773"/>
			<point x="74" y="752"/>
			<point x="78" y="732" type="curve"/>
			<point x="128" y="782" type="line"/>
			<point x="91" y="762"/>
			<point x="39" y="753"/>
			<point x="0" y="753" type="curve" smooth="yes"/>
			<point x="-39" y="753"/>
			<point x="-91" y="762"/>
			<point x="-128" y="782" type="curve"/>
			<point x="-78" y="732" type="line"/>
			<point x="-74" y="752"/>
			<point x="-70" y="773"/>
			<point x="-70" y="789" type="curve" smooth="yes"/>
			<point x="-70" y="866"/>
			<point x="-104" y="886"/>
			<point x="-135" y="886" type="curve" smooth="yes"/>
			<point x="-164" y="886"/>
			<point x="-182" y="872"/>
			<point x="-194" y="844" type="curve"/>
			<point x="-194" y="742"/>
			<point x="-104" y="698"/>
		</contour>
		<contour>
			<point name="_aboveUC" x="0" y="682" type="move"/>
		</contour>
	</outline>
</glyph>
<glyph name="circumflexcmb.cap" format="1">
  <advance width="0"/>
  <outline>
    <contour>
      <point x="41" y="887" type="line"/>
      <point x="-41" y="887" type="line"/>
      <point x="-198" y="720" type="line"/>
      <point x="-164" y="680" type="line"/>
      <point x="50" y="797" type="line"/>
      <point x="-50" y="797" type="line"/>
      <point x="164" y="680" type="line"/>
      <point x="198" y="720" type="line"/>
    </contour>
  </outline>
</glyph>
<glyph name="dieresiscaron.cap" format="1">
	<outline>
		<component base="dieresiscmb.cap"/>
		<component base="caroncmb.cap" yOffset="144"/>
		<contour>
			<point name="_aboveUC" x="0" y="682" type="move"/>
		</contour>
	</outline>
</glyph>
<glyph name="dieresistonoscmb" format="1">
	<outline>
		<contour>
			<point x="17" y="547" type="line"/>
			<point x="27" y="566"/>
			<point x="35" y="586"/>
			<point x="43" y="607" type="curve" smooth="yes"/>
			<point x="76" y="687"/>
			<point x="91" y="717"/>
			<point x="91" y="747" type="curve" smooth="yes"/>
			<point x="91" y="783"/>
			<point x="66" y="800"/>
			<point x="37" y="800" type="curve" smooth="yes"/>
			<point x="-4" y="800"/>
			<point x="-22" y="774"/>
			<point x="-34" y="674" type="curve" smooth="yes"/>
			<point x="-38" y="637"/>
			<point x="-43" y="599"/>
			<point x="-47" y="562" type="curve"/>
		</contour>
		<contour>
			<point x="162" y="579" type="curve" smooth="yes"/>
			<point x="195" y="579"/>
			<point x="224" y="600"/>
			<point x="224" y="639" type="curve" smooth="yes"/>
			<point x="224" y="678"/>
			<point x="195" y="700"/>
			<point x="162" y="700" type="curve" smooth="yes"/>
			<point x="131" y="700"/>
			<point x="100" y="678"/>
			<point x="100" y="639" type="curve" smooth="yes"/>
			<point x="100" y="600"/>
			<point x="131" y="579"/>
		</contour>
		<contour>
			<point x="-132" y="579" type="curve" smooth="yes"/>
			<point x="-99" y="579"/>
			<point x="-70" y="600"/>
			<point x="-70" y="639" type="curve" smooth="yes"/>
			<point x="-70" y="678"/>
			<point x="-99" y="700"/>
			<point x="-132" y="700" type="curve" smooth="yes"/>
			<point x="-164" y="700"/>
			<point x="-194" y="678"/>
			<point x="-194" y="639" type="curve" smooth="yes"/>
			<point x="-194" y="600"/>
			<point x="-164" y="579"/>
		</contour>
		<contour>
			<point name="_aboveLC" x="0" y="520" type="move"/>
		</contour>
	</outline>
</glyph>
<glyph name="dotaccentcmb.cap" format="1">
  <advance width="0"/>
  <outline>
    <contour>
      <point x="0" y="700" type="curve" smooth="yes"/>
      <point x="47" y="700"/>
      <point x="85" y="736"/>
      <point x="85" y="785" type="curve" smooth="yes"/>
      <point x="85" y="834"/>
      <point x="47" y="869"/>
      <point x="0" y="869" type="curve" smooth="yes"/>
      <point x="-45" y="869"/>
      <point x="-85" y="834"/>
      <point x="-85" y="785" type="curve" smooth="yes"/>
      <point x="-85" y="736"/>
      <point x="-45" y="700"/>
    </contour>
  </outline>
</glyph>
<glyph name="eight.lf" format="1">
  <advance width="540"/>
  <outline>
    <contour>
      <point x="33" y="131" type="curve" smooth="yes"/>
      <point x="33" y="46"/>
      <point x="98" y="-15"/>
      <point x="250" y="-15" type="curve" smooth="yes"/>
      <point x="418" y="-15"/>
      <point x="508" y="56"/>
      <point x="508" y="171" type="curve" smooth="yes"/>
      <point x="508" y="260"/>
      <point x="452" y="327"/>
      <point x="341" y="376" type="curve" smooth="yes"/>
      <point x="219" y="430"/>
      <point x="196" y="469"/>
      <point x="196" y="512" type="curve" smooth="yes"/>
      <point x="196" y="557"/>
      <point x="232" y="585"/>
      <point x="272" y="585" type="curve" smooth="yes"/>
      <point x="317" y="585"/>
      <point x="345" y="550"/>
      <point x="345" y="505" type="curve" smooth="yes"/>
      <point x="345" y="458"/>
      <point x="335" y="424"/>
      <point x="291" y="362" type="curve"/>
      <point x="314" y="344" type="line"/>
      <point x="446" y="386"/>
      <point x="490" y="437"/>
      <point x="490" y="499" type="curve" smooth="yes"/>
      <point x="490" y="573"/>
      <point x="429" y="640"/>
      <point x="277" y="640" type="curve" smooth="yes"/>
      <point x="140" y="640"/>
      <point x="41" y="567"/>
      <point x="41" y="454" type="curve" smooth="yes"/>
      <point x="41" y="368"/>
      <point x="98" y="303"/>
      <point x="196" y="262" type="curve" smooth="yes"/>
      <point x="308" y="214"/>
      <point x="341" y="173"/>
      <point x="341" y="118" type="curve" smooth="yes"/>
      <point x="341" y="79"/>
      <point x="319" y="40"/>
      <point x="267" y="40" type="curve" smooth="yes"/>
      <point x="219" y="40"/>
      <point x="184" y="82"/>
      <point x="184" y="140" type="curve" smooth="yes"/>
      <point x="184" y="193"/>
      <point x="200" y="232"/>
      <point x="250" y="285" type="curve"/>
      <point x="225" y="301" type="line"/>
      <point x="102" y="270"/>
      <point x="33" y="212"/>
    </contour>
  </outline>
</glyph>
<glyph name="f_t" format="1">
  <advance width="697"/>
  <outline>
    <contour>
      <point x="490" y="487" type="line"/>
      <point x="490" y="412" type="line"/>
      <point x="676" y="412" type="line"/>
      <point x="676" y="487" type="line"/>
    </contour>
    <contour>
      <point x="584" y="145" type="curve" smooth="yes"/>
      <point x="584" y="447" type="line"/>
      <point x="584" y="629" type="line"/>
      <point x="486" y="629" type="line"/>
      <point x="409" y="450" type="line"/>
      <point x="453" y="487" type="line"/>
      <point x="337" y="487" type="line"/>
      <point x="337" y="412" type="line"/>
      <point x="394" y="412" type="line"/>
      <point x="394" y="241" type="line" smooth="yes"/>
      <point x="394" y="202"/>
      <point x="393" y="173"/>
      <point x="393" y="134" type="curve" smooth="yes"/>
      <point x="393" y="27"/>
      <point x="450" y="-15"/>
      <point x="549" y="-15" type="curve" smooth="yes"/>
      <point x="631" y="-15"/>
      <point x="680" y="18"/>
      <point x="707" y="76" type="curve"/>
      <point x="682" y="99" type="line"/>
      <point x="665" y="86"/>
      <point x="650" y="79"/>
      <point x="633" y="79" type="curve" smooth="yes"/>
      <point x="605" y="79"/>
      <point x="584" y="100"/>
    </contour>
    <component base="f"/>
  </outline>
</glyph>
<glyph name="gravecmb.cap" format="1">
  <advance width="0"/>
  <outline>
    <contour>
      <point x="119" y="729" type="line"/>
      <point x="-2" y="843" type="line" smooth="yes"/>
      <point x="-33" y="871"/>
      <point x="-52" y="881"/>
      <point x="-78" y="881" type="curve" smooth="yes"/>
      <point x="-114" y="881"/>
      <point x="-139" y="851"/>
      <point x="-139" y="823" type="curve" smooth="yes"/>
      <point x="-139" y="804"/>
      <point x="-131" y="775"/>
      <point x="-77" y="752" type="curve" smooth="yes"/>
      <point x="88" y="684" type="line"/>
    </contour>
  </outline>
</glyph>
<glyph name="hungarumlautcmb.cap" format="1">
  <advance width="0"/>
  <outline>
    <contour>
      <point x="-180" y="713" type="line"/>
      <point x="-134" y="688" type="line"/>
      <point x="-34" y="808" type="line" smooth="yes"/>
      <point x="-19" y="827"/>
      <point x="-12" y="839"/>
      <point x="-12" y="858" type="curve" smooth="yes"/>
      <point x="-12" y="885"/>
      <point x="-38" y="901"/>
      <point x="-64" y="901" type="curve" smooth="yes"/>
      <point x="-94" y="901"/>
      <point x="-112" y="884"/>
      <point x="-125" y="852" type="curve" smooth="yes"/>
    </contour>
    <contour>
      <point x="-18" y="713" type="line"/>
      <point x="28" y="688" type="line"/>
      <point x="128" y="808" type="line" smooth="yes"/>
      <point x="143" y="827"/>
      <point x="150" y="839"/>
      <point x="150" y="858" type="curve" smooth="yes"/>
      <point x="150" y="885"/>
      <point x="124" y="901"/>
      <point x="98" y="901" type="curve" smooth="yes"/>
      <point x="68" y="901"/>
      <point x="50" y="884"/>
      <point x="37" y="852" type="curve" smooth="yes"/>
    </contour>
  </outline>
</glyph>
<glyph name="seven.lf" format="1">
  <advance width="540"/>
  <outline>
    <contour>
      <point x="84" y="10" type="line"/>
      <point x="94" y="0" type="line"/>
      <point x="268" y="0" type="line"/>
      <point x="502" y="538" type="line"/>
      <point x="502" y="625" type="line"/>
      <point x="40" y="625" type="line"/>
      <point x="40" y="485" type="line"/>
      <point x="448" y="485" type="line"/>
      <point x="417" y="535" type="line"/>
    </contour>
  </outline>
</glyph>
<glyph name="six.lf" format="1">
  <advance width="540"/>
  <outline>
    <contour>
      <point x="282" y="40" type="curve" smooth="yes"/>
      <point x="240" y="40"/>
      <point x="206" y="101"/>
      <point x="206" y="280" type="curve" smooth="yes"/>
      <point x="206" y="436"/>
      <point x="303" y="539"/>
      <point x="476" y="583" type="curve"/>
      <point x="470" y="640" type="line"/>
      <point x="208" y="620"/>
      <point x="16" y="460"/>
      <point x="16" y="253" type="curve" smooth="yes"/>
      <point x="16" y="80"/>
      <point x="121" y="-15"/>
      <point x="282" y="-15" type="curve" smooth="yes"/>
      <point x="412" y="-15"/>
      <point x="525" y="57"/>
      <point x="525" y="202" type="curve" smooth="yes"/>
      <point x="525" y="317"/>
      <point x="467" y="392"/>
      <point x="341" y="392" type="curve" smooth="yes"/>
      <point x="259" y="392"/>
      <point x="193" y="355"/>
      <point x="162" y="270" type="curve"/>
      <point x="185" y="260" type="line"/>
      <point x="209" y="306"/>
      <point x="238" y="322"/>
      <point x="267" y="322" type="curve" smooth="yes"/>
      <point x="319" y="322"/>
      <point x="340" y="271"/>
      <point x="340" y="179" type="curve" smooth="yes"/>
      <point x="340" y="80"/>
      <point x="315" y="40"/>
    </contour>
  </outline>
</glyph>
<glyph name="tildecmb.cap" format="1">
  <advance width="0"/>
  <outline>
    <contour>
      <point x="64" y="690" type="curve" smooth="yes"/>
      <point x="137" y="690"/>
      <point x="170" y="742"/>
      <point x="170" y="796" type="curve" smooth="yes"/>
      <point x="170" y="813"/>
      <point x="169" y="831"/>
      <point x="164" y="852" type="curve"/>
      <point x="115" y="852" type="line"/>
      <point x="115" y="800"/>
      <point x="102" y="783"/>
      <point x="79" y="783" type="curve" smooth="yes"/>
      <point x="61" y="783"/>
      <point x="50" y="797"/>
      <point x="30" y="817" type="curve" smooth="yes"/>
      <point x="-3" y="849"/>
      <point x="-27" y="860"/>
      <point x="-67" y="860" type="curve" smooth="yes"/>
      <point x="-137" y="860"/>
      <point x="-170" y="808"/>
      <point x="-170" y="754" type="curve" smooth="yes"/>
      <point x="-170" y="735"/>
      <point x="-169" y="719"/>
      <point x="-164" y="698" type="curve"/>
      <point x="-115" y="698" type="line"/>
      <point x="-115" y="750"/>
      <point x="-102" y="767"/>
      <point x="-80" y="767" type="curve" smooth="yes"/>
      <point x="-60" y="767"/>
      <point x="-50" y="753"/>
      <point x="-30" y="732" type="curve" smooth="yes"/>
      <point x="3" y="698"/>
      <point x="26" y="690"/>
    </contour>
  </outline>
</glyph>
<glyph name="two.osf" format="1">
  <advance width="520"/>
  <outline>
    <contour>
      <point x="41" y="0" type="line"/>
      <point x="485" y="0" type="line"/>
      <point x="485" y="140" type="line"/>
      <point x="123" y="140" type="line"/>
      <point x="113" y="99" type="line"/>
      <point x="254" y="176" type="line" smooth="yes"/>
      <point x="420" y="261"/>
      <point x="466" y="326"/>
      <point x="466" y="390" type="curve" smooth="yes"/>
      <point x="466" y="467"/>
      <point x="416" y="531"/>
      <point x="273" y="531" type="curve" smooth="yes"/>
      <point x="129" y="531"/>
      <point x="31" y="472"/>
      <point x="36" y="358" type="curve"/>
      <point x="49" y="332"/>
      <point x="76" y="316"/>
      <point x="110" y="316" type="curve" smooth="yes"/>
      <point x="141" y="316"/>
      <point x="178" y="330"/>
      <point x="189" y="411" type="curve" smooth="yes"/>
      <point x="201" y="503" type="line"/>
      <point x="119" y="455" type="line"/>
      <point x="155" y="475"/>
      <point x="177" y="477"/>
      <point x="202" y="477" type="curve" smooth="yes"/>
      <point x="250" y="477"/>
      <point x="278" y="437"/>
      <point x="278" y="379" type="curve" smooth="yes"/>
      <point x="278" y="319"/>
      <point x="259" y="273"/>
      <point x="183" y="214" type="curve" smooth="yes"/>
      <point x="41" y="99" type="line"/>
    </contour>
  </outline>
</glyph>
<glyph name="zero.lf" format="1">
  <advance width="540"/>
  <outline>
    <contour>
      <point x="211" y="313" type="curve" smooth="yes"/>
      <point x="211" y="544"/>
      <point x="232" y="586"/>
      <point x="270" y="586" type="curve" smooth="yes"/>
      <point x="308" y="586"/>
      <point x="329" y="543"/>
      <point x="329" y="313" type="curve" smooth="yes"/>
      <point x="329" y="87"/>
      <point x="308" y="40"/>
      <point x="270" y="40" type="curve" smooth="yes"/>
      <point x="232" y="40"/>
      <point x="211" y="86"/>
    </contour>
    <contour>
      <point x="270" y="640" type="curve" smooth="yes"/>
      <point x="133" y="640"/>
      <point x="25" y="551"/>
      <point x="25" y="313" type="curve" smooth="yes"/>
      <point x="25" y="75"/>
      <point x="133" y="-15"/>
      <point x="270" y="-15" type="curve" smooth="yes"/>
      <point x="407" y="-15"/>
      <point x="515" y="75"/>
      <point x="515" y="313" type="curve" smooth="yes"/>
      <point x="515" y="551"/>
      <point x="407" y="640"/>
    </contour>
  </outline>
</glyph>
<glyph name="zero.lfslash" format="1">
  <advance width="540"/>
  <outline>
    <contour>
      <point x="148" y="45" type="line"/>
      <point x="204" y="45" type="line"/>
      <point x="404" y="593" type="line"/>
      <point x="348" y="593" type="line"/>
    </contour>
    <component base="zero.lf"/>
  </outline>
</glyph>
<glyph name="zero.slash" format="1">
  <advance width="560"/>
  <outline>
    <contour>
      <point x="152" y="45" type="line"/>
      <point x="207" y="45" type="line"/>
      <point x="407" y="593" type="line"/>
      <point x="352" y="593" type="line"/>
    </contour>
    <component base="zero"/>
  </outline>
</glyph>
